%TF.GenerationSoftware,KiCad,Pcbnew,9.0.7-9.0.7~ubuntu24.04.1*%
%TF.CreationDate,2026-01-03T22:14:33+01:00*%
%TF.ProjectId,rtc_xiao_esp32s3,7274635f-7869-4616-9f5f-657370333273,1.0*%
%TF.SameCoordinates,Original*%
%TF.FileFunction,Soldermask,Top*%
%TF.FilePolarity,Negative*%
%FSLAX46Y46*%
G04 Gerber Fmt 4.6, Leading zero omitted, Abs format (unit mm)*
G04 Created by KiCad (PCBNEW 9.0.7-9.0.7~ubuntu24.04.1) date 2026-01-03 22:14:33*
%MOMM*%
%LPD*%
G01*
G04 APERTURE LIST*
G04 APERTURE END LIST*
G36*
X117517714Y-112332295D02*
G01*
X117653548Y-112388559D01*
X117775795Y-112470242D01*
X117879758Y-112574205D01*
X117961441Y-112696452D01*
X118017705Y-112832286D01*
X118046389Y-112976487D01*
X118046389Y-113123513D01*
X118017705Y-113267714D01*
X117961441Y-113403548D01*
X117879758Y-113525795D01*
X117775795Y-113629758D01*
X117653548Y-113711441D01*
X117517714Y-113767705D01*
X117373513Y-113796389D01*
X117226487Y-113796389D01*
X117082286Y-113767705D01*
X116946452Y-113711441D01*
X116824205Y-113629758D01*
X116720242Y-113525795D01*
X116638559Y-113403548D01*
X116582295Y-113267714D01*
X116553611Y-113123513D01*
X116553611Y-112976487D01*
X116582295Y-112832286D01*
X116638559Y-112696452D01*
X116720242Y-112574205D01*
X116824205Y-112470242D01*
X116946452Y-112388559D01*
X117082286Y-112332295D01*
X117226487Y-112303611D01*
X117373513Y-112303611D01*
X117517714Y-112332295D01*
G37*
G36*
X132417714Y-112282295D02*
G01*
X132553548Y-112338559D01*
X132675795Y-112420242D01*
X132779758Y-112524205D01*
X132861441Y-112646452D01*
X132917705Y-112782286D01*
X132946389Y-112926487D01*
X132946389Y-113073513D01*
X132917705Y-113217714D01*
X132861441Y-113353548D01*
X132779758Y-113475795D01*
X132675795Y-113579758D01*
X132553548Y-113661441D01*
X132417714Y-113717705D01*
X132273513Y-113746389D01*
X132126487Y-113746389D01*
X131982286Y-113717705D01*
X131846452Y-113661441D01*
X131724205Y-113579758D01*
X131620242Y-113475795D01*
X131538559Y-113353548D01*
X131482295Y-113217714D01*
X131453611Y-113073513D01*
X131453611Y-112926487D01*
X131482295Y-112782286D01*
X131538559Y-112646452D01*
X131620242Y-112524205D01*
X131724205Y-112420242D01*
X131846452Y-112338559D01*
X131982286Y-112282295D01*
X132126487Y-112253611D01*
X132273513Y-112253611D01*
X132417714Y-112282295D01*
G37*
G36*
X117517714Y-109832295D02*
G01*
X117653548Y-109888559D01*
X117775795Y-109970242D01*
X117879758Y-110074205D01*
X117961441Y-110196452D01*
X118017705Y-110332286D01*
X118046389Y-110476487D01*
X118046389Y-110623513D01*
X118017705Y-110767714D01*
X117961441Y-110903548D01*
X117879758Y-111025795D01*
X117775795Y-111129758D01*
X117653548Y-111211441D01*
X117517714Y-111267705D01*
X117373513Y-111296389D01*
X117226487Y-111296389D01*
X117082286Y-111267705D01*
X116946452Y-111211441D01*
X116824205Y-111129758D01*
X116720242Y-111025795D01*
X116638559Y-110903548D01*
X116582295Y-110767714D01*
X116553611Y-110623513D01*
X116553611Y-110476487D01*
X116582295Y-110332286D01*
X116638559Y-110196452D01*
X116720242Y-110074205D01*
X116824205Y-109970242D01*
X116946452Y-109888559D01*
X117082286Y-109832295D01*
X117226487Y-109803611D01*
X117373513Y-109803611D01*
X117517714Y-109832295D01*
G37*
G36*
X132417714Y-109782295D02*
G01*
X132553548Y-109838559D01*
X132675795Y-109920242D01*
X132779758Y-110024205D01*
X132861441Y-110146452D01*
X132917705Y-110282286D01*
X132946389Y-110426487D01*
X132946389Y-110573513D01*
X132917705Y-110717714D01*
X132861441Y-110853548D01*
X132779758Y-110975795D01*
X132675795Y-111079758D01*
X132553548Y-111161441D01*
X132417714Y-111217705D01*
X132273513Y-111246389D01*
X132126487Y-111246389D01*
X131982286Y-111217705D01*
X131846452Y-111161441D01*
X131724205Y-111079758D01*
X131620242Y-110975795D01*
X131538559Y-110853548D01*
X131482295Y-110717714D01*
X131453611Y-110573513D01*
X131453611Y-110426487D01*
X131482295Y-110282286D01*
X131538559Y-110146452D01*
X131620242Y-110024205D01*
X131724205Y-109920242D01*
X131846452Y-109838559D01*
X131982286Y-109782295D01*
X132126487Y-109753611D01*
X132273513Y-109753611D01*
X132417714Y-109782295D01*
G37*
G36*
X117517714Y-107332295D02*
G01*
X117653548Y-107388559D01*
X117775795Y-107470242D01*
X117879758Y-107574205D01*
X117961441Y-107696452D01*
X118017705Y-107832286D01*
X118046389Y-107976487D01*
X118046389Y-108123513D01*
X118017705Y-108267714D01*
X117961441Y-108403548D01*
X117879758Y-108525795D01*
X117775795Y-108629758D01*
X117653548Y-108711441D01*
X117517714Y-108767705D01*
X117373513Y-108796389D01*
X117226487Y-108796389D01*
X117082286Y-108767705D01*
X116946452Y-108711441D01*
X116824205Y-108629758D01*
X116720242Y-108525795D01*
X116638559Y-108403548D01*
X116582295Y-108267714D01*
X116553611Y-108123513D01*
X116553611Y-107976487D01*
X116582295Y-107832286D01*
X116638559Y-107696452D01*
X116720242Y-107574205D01*
X116824205Y-107470242D01*
X116946452Y-107388559D01*
X117082286Y-107332295D01*
X117226487Y-107303611D01*
X117373513Y-107303611D01*
X117517714Y-107332295D01*
G37*
G36*
X132417714Y-107282295D02*
G01*
X132553548Y-107338559D01*
X132675795Y-107420242D01*
X132779758Y-107524205D01*
X132861441Y-107646452D01*
X132917705Y-107782286D01*
X132946389Y-107926487D01*
X132946389Y-108073513D01*
X132917705Y-108217714D01*
X132861441Y-108353548D01*
X132779758Y-108475795D01*
X132675795Y-108579758D01*
X132553548Y-108661441D01*
X132417714Y-108717705D01*
X132273513Y-108746389D01*
X132126487Y-108746389D01*
X131982286Y-108717705D01*
X131846452Y-108661441D01*
X131724205Y-108579758D01*
X131620242Y-108475795D01*
X131538559Y-108353548D01*
X131482295Y-108217714D01*
X131453611Y-108073513D01*
X131453611Y-107926487D01*
X131482295Y-107782286D01*
X131538559Y-107646452D01*
X131620242Y-107524205D01*
X131724205Y-107420242D01*
X131846452Y-107338559D01*
X131982286Y-107282295D01*
X132126487Y-107253611D01*
X132273513Y-107253611D01*
X132417714Y-107282295D01*
G37*
G36*
X117517714Y-104832295D02*
G01*
X117653548Y-104888559D01*
X117775795Y-104970242D01*
X117879758Y-105074205D01*
X117961441Y-105196452D01*
X118017705Y-105332286D01*
X118046389Y-105476487D01*
X118046389Y-105623513D01*
X118017705Y-105767714D01*
X117961441Y-105903548D01*
X117879758Y-106025795D01*
X117775795Y-106129758D01*
X117653548Y-106211441D01*
X117517714Y-106267705D01*
X117373513Y-106296389D01*
X117226487Y-106296389D01*
X117082286Y-106267705D01*
X116946452Y-106211441D01*
X116824205Y-106129758D01*
X116720242Y-106025795D01*
X116638559Y-105903548D01*
X116582295Y-105767714D01*
X116553611Y-105623513D01*
X116553611Y-105476487D01*
X116582295Y-105332286D01*
X116638559Y-105196452D01*
X116720242Y-105074205D01*
X116824205Y-104970242D01*
X116946452Y-104888559D01*
X117082286Y-104832295D01*
X117226487Y-104803611D01*
X117373513Y-104803611D01*
X117517714Y-104832295D01*
G37*
G36*
X132417714Y-104782295D02*
G01*
X132553548Y-104838559D01*
X132675795Y-104920242D01*
X132779758Y-105024205D01*
X132861441Y-105146452D01*
X132917705Y-105282286D01*
X132946389Y-105426487D01*
X132946389Y-105573513D01*
X132917705Y-105717714D01*
X132861441Y-105853548D01*
X132779758Y-105975795D01*
X132675795Y-106079758D01*
X132553548Y-106161441D01*
X132417714Y-106217705D01*
X132273513Y-106246389D01*
X132126487Y-106246389D01*
X131982286Y-106217705D01*
X131846452Y-106161441D01*
X131724205Y-106079758D01*
X131620242Y-105975795D01*
X131538559Y-105853548D01*
X131482295Y-105717714D01*
X131453611Y-105573513D01*
X131453611Y-105426487D01*
X131482295Y-105282286D01*
X131538559Y-105146452D01*
X131620242Y-105024205D01*
X131724205Y-104920242D01*
X131846452Y-104838559D01*
X131982286Y-104782295D01*
X132126487Y-104753611D01*
X132273513Y-104753611D01*
X132417714Y-104782295D01*
G37*
G36*
X117517714Y-102332295D02*
G01*
X117653548Y-102388559D01*
X117775795Y-102470242D01*
X117879758Y-102574205D01*
X117961441Y-102696452D01*
X118017705Y-102832286D01*
X118046389Y-102976487D01*
X118046389Y-103123513D01*
X118017705Y-103267714D01*
X117961441Y-103403548D01*
X117879758Y-103525795D01*
X117775795Y-103629758D01*
X117653548Y-103711441D01*
X117517714Y-103767705D01*
X117373513Y-103796389D01*
X117226487Y-103796389D01*
X117082286Y-103767705D01*
X116946452Y-103711441D01*
X116824205Y-103629758D01*
X116720242Y-103525795D01*
X116638559Y-103403548D01*
X116582295Y-103267714D01*
X116553611Y-103123513D01*
X116553611Y-102976487D01*
X116582295Y-102832286D01*
X116638559Y-102696452D01*
X116720242Y-102574205D01*
X116824205Y-102470242D01*
X116946452Y-102388559D01*
X117082286Y-102332295D01*
X117226487Y-102303611D01*
X117373513Y-102303611D01*
X117517714Y-102332295D01*
G37*
G36*
X132417714Y-102282295D02*
G01*
X132553548Y-102338559D01*
X132675795Y-102420242D01*
X132779758Y-102524205D01*
X132861441Y-102646452D01*
X132917705Y-102782286D01*
X132946389Y-102926487D01*
X132946389Y-103073513D01*
X132917705Y-103217714D01*
X132861441Y-103353548D01*
X132779758Y-103475795D01*
X132675795Y-103579758D01*
X132553548Y-103661441D01*
X132417714Y-103717705D01*
X132273513Y-103746389D01*
X132126487Y-103746389D01*
X131982286Y-103717705D01*
X131846452Y-103661441D01*
X131724205Y-103579758D01*
X131620242Y-103475795D01*
X131538559Y-103353548D01*
X131482295Y-103217714D01*
X131453611Y-103073513D01*
X131453611Y-102926487D01*
X131482295Y-102782286D01*
X131538559Y-102646452D01*
X131620242Y-102524205D01*
X131724205Y-102420242D01*
X131846452Y-102338559D01*
X131982286Y-102282295D01*
X132126487Y-102253611D01*
X132273513Y-102253611D01*
X132417714Y-102282295D01*
G37*
G36*
X117517714Y-99832295D02*
G01*
X117653548Y-99888559D01*
X117775795Y-99970242D01*
X117879758Y-100074205D01*
X117961441Y-100196452D01*
X118017705Y-100332286D01*
X118046389Y-100476487D01*
X118046389Y-100623513D01*
X118017705Y-100767714D01*
X117961441Y-100903548D01*
X117879758Y-101025795D01*
X117775795Y-101129758D01*
X117653548Y-101211441D01*
X117517714Y-101267705D01*
X117373513Y-101296389D01*
X117226487Y-101296389D01*
X117082286Y-101267705D01*
X116946452Y-101211441D01*
X116824205Y-101129758D01*
X116720242Y-101025795D01*
X116638559Y-100903548D01*
X116582295Y-100767714D01*
X116553611Y-100623513D01*
X116553611Y-100476487D01*
X116582295Y-100332286D01*
X116638559Y-100196452D01*
X116720242Y-100074205D01*
X116824205Y-99970242D01*
X116946452Y-99888559D01*
X117082286Y-99832295D01*
X117226487Y-99803611D01*
X117373513Y-99803611D01*
X117517714Y-99832295D01*
G37*
G36*
X132417714Y-99782295D02*
G01*
X132553548Y-99838559D01*
X132675795Y-99920242D01*
X132779758Y-100024205D01*
X132861441Y-100146452D01*
X132917705Y-100282286D01*
X132946389Y-100426487D01*
X132946389Y-100573513D01*
X132917705Y-100717714D01*
X132861441Y-100853548D01*
X132779758Y-100975795D01*
X132675795Y-101079758D01*
X132553548Y-101161441D01*
X132417714Y-101217705D01*
X132273513Y-101246389D01*
X132126487Y-101246389D01*
X131982286Y-101217705D01*
X131846452Y-101161441D01*
X131724205Y-101079758D01*
X131620242Y-100975795D01*
X131538559Y-100853548D01*
X131482295Y-100717714D01*
X131453611Y-100573513D01*
X131453611Y-100426487D01*
X131482295Y-100282286D01*
X131538559Y-100146452D01*
X131620242Y-100024205D01*
X131724205Y-99920242D01*
X131846452Y-99838559D01*
X131982286Y-99782295D01*
X132126487Y-99753611D01*
X132273513Y-99753611D01*
X132417714Y-99782295D01*
G37*
G36*
X117517714Y-97332295D02*
G01*
X117653548Y-97388559D01*
X117775795Y-97470242D01*
X117879758Y-97574205D01*
X117961441Y-97696452D01*
X118017705Y-97832286D01*
X118046389Y-97976487D01*
X118046389Y-98123513D01*
X118017705Y-98267714D01*
X117961441Y-98403548D01*
X117879758Y-98525795D01*
X117775795Y-98629758D01*
X117653548Y-98711441D01*
X117517714Y-98767705D01*
X117373513Y-98796389D01*
X117226487Y-98796389D01*
X117082286Y-98767705D01*
X116946452Y-98711441D01*
X116824205Y-98629758D01*
X116720242Y-98525795D01*
X116638559Y-98403548D01*
X116582295Y-98267714D01*
X116553611Y-98123513D01*
X116553611Y-97976487D01*
X116582295Y-97832286D01*
X116638559Y-97696452D01*
X116720242Y-97574205D01*
X116824205Y-97470242D01*
X116946452Y-97388559D01*
X117082286Y-97332295D01*
X117226487Y-97303611D01*
X117373513Y-97303611D01*
X117517714Y-97332295D01*
G37*
G36*
X132417714Y-97282295D02*
G01*
X132553548Y-97338559D01*
X132675795Y-97420242D01*
X132779758Y-97524205D01*
X132861441Y-97646452D01*
X132917705Y-97782286D01*
X132946389Y-97926487D01*
X132946389Y-98073513D01*
X132917705Y-98217714D01*
X132861441Y-98353548D01*
X132779758Y-98475795D01*
X132675795Y-98579758D01*
X132553548Y-98661441D01*
X132417714Y-98717705D01*
X132273513Y-98746389D01*
X132126487Y-98746389D01*
X131982286Y-98717705D01*
X131846452Y-98661441D01*
X131724205Y-98579758D01*
X131620242Y-98475795D01*
X131538559Y-98353548D01*
X131482295Y-98217714D01*
X131453611Y-98073513D01*
X131453611Y-97926487D01*
X131482295Y-97782286D01*
X131538559Y-97646452D01*
X131620242Y-97524205D01*
X131724205Y-97420242D01*
X131846452Y-97338559D01*
X131982286Y-97282295D01*
X132126487Y-97253611D01*
X132273513Y-97253611D01*
X132417714Y-97282295D01*
G37*
M02*
