%TF.GenerationSoftware,KiCad,Pcbnew,10.0.1*%
%TF.CreationDate,2026-04-28T23:16:48+02:00*%
%TF.ProjectId,rtc_xiao_esp32s3,7274635f-7869-4616-9f5f-657370333273,1.1.2*%
%TF.SameCoordinates,Original*%
%TF.FileFunction,Legend,Bot*%
%TF.FilePolarity,Positive*%
%FSLAX46Y46*%
G04 Gerber Fmt 4.6, Leading zero omitted, Abs format (unit mm)*
G04 Created by KiCad (PCBNEW 10.0.1) date 2026-04-28 23:16:48*
%MOMM*%
%LPD*%
G01*
G04 APERTURE LIST*
%ADD10C,0.150000*%
%ADD11C,0.120000*%
%ADD12C,0.100000*%
%ADD13C,0.000000*%
G04 APERTURE END LIST*
D10*
X129366666Y-115254819D02*
X129699999Y-114778628D01*
X129938094Y-115254819D02*
X129938094Y-114254819D01*
X129938094Y-114254819D02*
X129557142Y-114254819D01*
X129557142Y-114254819D02*
X129461904Y-114302438D01*
X129461904Y-114302438D02*
X129414285Y-114350057D01*
X129414285Y-114350057D02*
X129366666Y-114445295D01*
X129366666Y-114445295D02*
X129366666Y-114588152D01*
X129366666Y-114588152D02*
X129414285Y-114683390D01*
X129414285Y-114683390D02*
X129461904Y-114731009D01*
X129461904Y-114731009D02*
X129557142Y-114778628D01*
X129557142Y-114778628D02*
X129938094Y-114778628D01*
X128509523Y-114588152D02*
X128509523Y-115254819D01*
X128747618Y-114207200D02*
X128985713Y-114921485D01*
X128985713Y-114921485D02*
X128366666Y-114921485D01*
X121916666Y-114609580D02*
X121964285Y-114657200D01*
X121964285Y-114657200D02*
X122107142Y-114704819D01*
X122107142Y-114704819D02*
X122202380Y-114704819D01*
X122202380Y-114704819D02*
X122345237Y-114657200D01*
X122345237Y-114657200D02*
X122440475Y-114561961D01*
X122440475Y-114561961D02*
X122488094Y-114466723D01*
X122488094Y-114466723D02*
X122535713Y-114276247D01*
X122535713Y-114276247D02*
X122535713Y-114133390D01*
X122535713Y-114133390D02*
X122488094Y-113942914D01*
X122488094Y-113942914D02*
X122440475Y-113847676D01*
X122440475Y-113847676D02*
X122345237Y-113752438D01*
X122345237Y-113752438D02*
X122202380Y-113704819D01*
X122202380Y-113704819D02*
X122107142Y-113704819D01*
X122107142Y-113704819D02*
X121964285Y-113752438D01*
X121964285Y-113752438D02*
X121916666Y-113800057D01*
X120964285Y-114704819D02*
X121535713Y-114704819D01*
X121249999Y-114704819D02*
X121249999Y-113704819D01*
X121249999Y-113704819D02*
X121345237Y-113847676D01*
X121345237Y-113847676D02*
X121440475Y-113942914D01*
X121440475Y-113942914D02*
X121535713Y-113990533D01*
X125066666Y-106254819D02*
X125399999Y-105778628D01*
X125638094Y-106254819D02*
X125638094Y-105254819D01*
X125638094Y-105254819D02*
X125257142Y-105254819D01*
X125257142Y-105254819D02*
X125161904Y-105302438D01*
X125161904Y-105302438D02*
X125114285Y-105350057D01*
X125114285Y-105350057D02*
X125066666Y-105445295D01*
X125066666Y-105445295D02*
X125066666Y-105588152D01*
X125066666Y-105588152D02*
X125114285Y-105683390D01*
X125114285Y-105683390D02*
X125161904Y-105731009D01*
X125161904Y-105731009D02*
X125257142Y-105778628D01*
X125257142Y-105778628D02*
X125638094Y-105778628D01*
X124114285Y-106254819D02*
X124685713Y-106254819D01*
X124399999Y-106254819D02*
X124399999Y-105254819D01*
X124399999Y-105254819D02*
X124495237Y-105397676D01*
X124495237Y-105397676D02*
X124590475Y-105492914D01*
X124590475Y-105492914D02*
X124685713Y-105540533D01*
X121583333Y-105954819D02*
X121583333Y-106669104D01*
X121583333Y-106669104D02*
X121630952Y-106811961D01*
X121630952Y-106811961D02*
X121726190Y-106907200D01*
X121726190Y-106907200D02*
X121869047Y-106954819D01*
X121869047Y-106954819D02*
X121964285Y-106954819D01*
X121107142Y-106954819D02*
X121107142Y-105954819D01*
X121107142Y-105954819D02*
X120726190Y-105954819D01*
X120726190Y-105954819D02*
X120630952Y-106002438D01*
X120630952Y-106002438D02*
X120583333Y-106050057D01*
X120583333Y-106050057D02*
X120535714Y-106145295D01*
X120535714Y-106145295D02*
X120535714Y-106288152D01*
X120535714Y-106288152D02*
X120583333Y-106383390D01*
X120583333Y-106383390D02*
X120630952Y-106431009D01*
X120630952Y-106431009D02*
X120726190Y-106478628D01*
X120726190Y-106478628D02*
X121107142Y-106478628D01*
X119583333Y-106954819D02*
X120154761Y-106954819D01*
X119869047Y-106954819D02*
X119869047Y-105954819D01*
X119869047Y-105954819D02*
X119964285Y-106097676D01*
X119964285Y-106097676D02*
X120059523Y-106192914D01*
X120059523Y-106192914D02*
X120154761Y-106240533D01*
X119966666Y-114704819D02*
X120299999Y-114228628D01*
X120538094Y-114704819D02*
X120538094Y-113704819D01*
X120538094Y-113704819D02*
X120157142Y-113704819D01*
X120157142Y-113704819D02*
X120061904Y-113752438D01*
X120061904Y-113752438D02*
X120014285Y-113800057D01*
X120014285Y-113800057D02*
X119966666Y-113895295D01*
X119966666Y-113895295D02*
X119966666Y-114038152D01*
X119966666Y-114038152D02*
X120014285Y-114133390D01*
X120014285Y-114133390D02*
X120061904Y-114181009D01*
X120061904Y-114181009D02*
X120157142Y-114228628D01*
X120157142Y-114228628D02*
X120538094Y-114228628D01*
X119061904Y-113704819D02*
X119538094Y-113704819D01*
X119538094Y-113704819D02*
X119585713Y-114181009D01*
X119585713Y-114181009D02*
X119538094Y-114133390D01*
X119538094Y-114133390D02*
X119442856Y-114085771D01*
X119442856Y-114085771D02*
X119204761Y-114085771D01*
X119204761Y-114085771D02*
X119109523Y-114133390D01*
X119109523Y-114133390D02*
X119061904Y-114181009D01*
X119061904Y-114181009D02*
X119014285Y-114276247D01*
X119014285Y-114276247D02*
X119014285Y-114514342D01*
X119014285Y-114514342D02*
X119061904Y-114609580D01*
X119061904Y-114609580D02*
X119109523Y-114657200D01*
X119109523Y-114657200D02*
X119204761Y-114704819D01*
X119204761Y-114704819D02*
X119442856Y-114704819D01*
X119442856Y-114704819D02*
X119538094Y-114657200D01*
X119538094Y-114657200D02*
X119585713Y-114609580D01*
X130266666Y-112554819D02*
X130599999Y-112078628D01*
X130838094Y-112554819D02*
X130838094Y-111554819D01*
X130838094Y-111554819D02*
X130457142Y-111554819D01*
X130457142Y-111554819D02*
X130361904Y-111602438D01*
X130361904Y-111602438D02*
X130314285Y-111650057D01*
X130314285Y-111650057D02*
X130266666Y-111745295D01*
X130266666Y-111745295D02*
X130266666Y-111888152D01*
X130266666Y-111888152D02*
X130314285Y-111983390D01*
X130314285Y-111983390D02*
X130361904Y-112031009D01*
X130361904Y-112031009D02*
X130457142Y-112078628D01*
X130457142Y-112078628D02*
X130838094Y-112078628D01*
X129885713Y-111650057D02*
X129838094Y-111602438D01*
X129838094Y-111602438D02*
X129742856Y-111554819D01*
X129742856Y-111554819D02*
X129504761Y-111554819D01*
X129504761Y-111554819D02*
X129409523Y-111602438D01*
X129409523Y-111602438D02*
X129361904Y-111650057D01*
X129361904Y-111650057D02*
X129314285Y-111745295D01*
X129314285Y-111745295D02*
X129314285Y-111840533D01*
X129314285Y-111840533D02*
X129361904Y-111983390D01*
X129361904Y-111983390D02*
X129933332Y-112554819D01*
X129933332Y-112554819D02*
X129314285Y-112554819D01*
X124666666Y-115359580D02*
X124714285Y-115407200D01*
X124714285Y-115407200D02*
X124857142Y-115454819D01*
X124857142Y-115454819D02*
X124952380Y-115454819D01*
X124952380Y-115454819D02*
X125095237Y-115407200D01*
X125095237Y-115407200D02*
X125190475Y-115311961D01*
X125190475Y-115311961D02*
X125238094Y-115216723D01*
X125238094Y-115216723D02*
X125285713Y-115026247D01*
X125285713Y-115026247D02*
X125285713Y-114883390D01*
X125285713Y-114883390D02*
X125238094Y-114692914D01*
X125238094Y-114692914D02*
X125190475Y-114597676D01*
X125190475Y-114597676D02*
X125095237Y-114502438D01*
X125095237Y-114502438D02*
X124952380Y-114454819D01*
X124952380Y-114454819D02*
X124857142Y-114454819D01*
X124857142Y-114454819D02*
X124714285Y-114502438D01*
X124714285Y-114502438D02*
X124666666Y-114550057D01*
X124285713Y-114550057D02*
X124238094Y-114502438D01*
X124238094Y-114502438D02*
X124142856Y-114454819D01*
X124142856Y-114454819D02*
X123904761Y-114454819D01*
X123904761Y-114454819D02*
X123809523Y-114502438D01*
X123809523Y-114502438D02*
X123761904Y-114550057D01*
X123761904Y-114550057D02*
X123714285Y-114645295D01*
X123714285Y-114645295D02*
X123714285Y-114740533D01*
X123714285Y-114740533D02*
X123761904Y-114883390D01*
X123761904Y-114883390D02*
X124333332Y-115454819D01*
X124333332Y-115454819D02*
X123714285Y-115454819D01*
X125485714Y-96181009D02*
X125342857Y-96228628D01*
X125342857Y-96228628D02*
X125295238Y-96276247D01*
X125295238Y-96276247D02*
X125247619Y-96371485D01*
X125247619Y-96371485D02*
X125247619Y-96514342D01*
X125247619Y-96514342D02*
X125295238Y-96609580D01*
X125295238Y-96609580D02*
X125342857Y-96657200D01*
X125342857Y-96657200D02*
X125438095Y-96704819D01*
X125438095Y-96704819D02*
X125819047Y-96704819D01*
X125819047Y-96704819D02*
X125819047Y-95704819D01*
X125819047Y-95704819D02*
X125485714Y-95704819D01*
X125485714Y-95704819D02*
X125390476Y-95752438D01*
X125390476Y-95752438D02*
X125342857Y-95800057D01*
X125342857Y-95800057D02*
X125295238Y-95895295D01*
X125295238Y-95895295D02*
X125295238Y-95990533D01*
X125295238Y-95990533D02*
X125342857Y-96085771D01*
X125342857Y-96085771D02*
X125390476Y-96133390D01*
X125390476Y-96133390D02*
X125485714Y-96181009D01*
X125485714Y-96181009D02*
X125819047Y-96181009D01*
X124961904Y-95704819D02*
X124390476Y-95704819D01*
X124676190Y-96704819D02*
X124676190Y-95704819D01*
X123533333Y-96704819D02*
X124104761Y-96704819D01*
X123819047Y-96704819D02*
X123819047Y-95704819D01*
X123819047Y-95704819D02*
X123914285Y-95847676D01*
X123914285Y-95847676D02*
X124009523Y-95942914D01*
X124009523Y-95942914D02*
X124104761Y-95990533D01*
X127511904Y-111454819D02*
X127511904Y-112264342D01*
X127511904Y-112264342D02*
X127464285Y-112359580D01*
X127464285Y-112359580D02*
X127416666Y-112407200D01*
X127416666Y-112407200D02*
X127321428Y-112454819D01*
X127321428Y-112454819D02*
X127130952Y-112454819D01*
X127130952Y-112454819D02*
X127035714Y-112407200D01*
X127035714Y-112407200D02*
X126988095Y-112359580D01*
X126988095Y-112359580D02*
X126940476Y-112264342D01*
X126940476Y-112264342D02*
X126940476Y-111454819D01*
X125940476Y-112454819D02*
X126511904Y-112454819D01*
X126226190Y-112454819D02*
X126226190Y-111454819D01*
X126226190Y-111454819D02*
X126321428Y-111597676D01*
X126321428Y-111597676D02*
X126416666Y-111692914D01*
X126416666Y-111692914D02*
X126511904Y-111740533D01*
X129966666Y-107754819D02*
X130299999Y-107278628D01*
X130538094Y-107754819D02*
X130538094Y-106754819D01*
X130538094Y-106754819D02*
X130157142Y-106754819D01*
X130157142Y-106754819D02*
X130061904Y-106802438D01*
X130061904Y-106802438D02*
X130014285Y-106850057D01*
X130014285Y-106850057D02*
X129966666Y-106945295D01*
X129966666Y-106945295D02*
X129966666Y-107088152D01*
X129966666Y-107088152D02*
X130014285Y-107183390D01*
X130014285Y-107183390D02*
X130061904Y-107231009D01*
X130061904Y-107231009D02*
X130157142Y-107278628D01*
X130157142Y-107278628D02*
X130538094Y-107278628D01*
X129633332Y-106754819D02*
X129014285Y-106754819D01*
X129014285Y-106754819D02*
X129347618Y-107135771D01*
X129347618Y-107135771D02*
X129204761Y-107135771D01*
X129204761Y-107135771D02*
X129109523Y-107183390D01*
X129109523Y-107183390D02*
X129061904Y-107231009D01*
X129061904Y-107231009D02*
X129014285Y-107326247D01*
X129014285Y-107326247D02*
X129014285Y-107564342D01*
X129014285Y-107564342D02*
X129061904Y-107659580D01*
X129061904Y-107659580D02*
X129109523Y-107707200D01*
X129109523Y-107707200D02*
X129204761Y-107754819D01*
X129204761Y-107754819D02*
X129490475Y-107754819D01*
X129490475Y-107754819D02*
X129585713Y-107707200D01*
X129585713Y-107707200D02*
X129633332Y-107659580D01*
%TO.C,R4*%
D11*
X127745276Y-112977500D02*
X128254724Y-112977500D01*
X127745276Y-114022500D02*
X128254724Y-114022500D01*
%TO.C,C1*%
X121240000Y-111896267D02*
X121240000Y-111603733D01*
X122260000Y-111896267D02*
X122260000Y-111603733D01*
%TO.C,R1*%
X124657776Y-106727500D02*
X125167224Y-106727500D01*
X124657776Y-107772500D02*
X125167224Y-107772500D01*
%TO.C,JP1*%
X119500000Y-107950000D02*
X119500000Y-108550000D01*
X120200000Y-109250000D02*
X121600000Y-109250000D01*
X121600000Y-107250000D02*
X120200000Y-107250000D01*
X122300000Y-108550000D02*
X122300000Y-107950000D01*
X119500000Y-107950000D02*
G75*
G02*
X120200000Y-107250000I700000J0D01*
G01*
X120200000Y-109250000D02*
G75*
G02*
X119500000Y-108550000I0J700000D01*
G01*
X121600000Y-107250000D02*
G75*
G02*
X122300000Y-107950000I1J-699999D01*
G01*
X122300000Y-108550000D02*
G75*
G02*
X121600000Y-109250000I-699999J-1D01*
G01*
%TO.C,R5*%
X119477500Y-112004724D02*
X119477500Y-111495276D01*
X120522500Y-112004724D02*
X120522500Y-111495276D01*
%TO.C,R2*%
X129004724Y-110227500D02*
X128495276Y-110227500D01*
X129004724Y-111272500D02*
X128495276Y-111272500D01*
%TO.C,C2*%
X124353733Y-112990000D02*
X124646267Y-112990000D01*
X124353733Y-114010000D02*
X124646267Y-114010000D01*
%TO.C,BT1*%
X121000000Y-96950000D02*
X121000000Y-102950000D01*
X122700000Y-104950000D02*
X121000000Y-102950000D01*
X126700000Y-104950000D02*
X122700000Y-104950000D01*
X126700000Y-104950000D02*
X128400000Y-102950000D01*
X128400000Y-96950000D02*
X128400000Y-102950000D01*
X120996277Y-96950000D02*
G75*
G02*
X122307373Y-96956028I653723J-400000D01*
G01*
X127100000Y-96950000D02*
G75*
G02*
X122308617Y-96954585I-2400000J4499997D01*
G01*
X127100000Y-96950000D02*
G75*
G02*
X128405648Y-96959327I650000J-400001D01*
G01*
%TO.C,U1*%
D12*
D13*
X125950000Y-109670000D02*
X125949999Y-109670000D01*
X125949999Y-109670000D01*
X125949999Y-109670000D01*
X125949999Y-109670000D01*
X125949999Y-109670000D01*
X125949999Y-109670000D01*
X125949999Y-109670000D01*
X125949999Y-109669999D01*
X125949999Y-109669999D01*
X125949999Y-109669999D01*
X125949999Y-109669999D01*
X125949999Y-109669999D01*
X125950000Y-109669999D01*
X125950000Y-109669999D01*
X125950000Y-109669999D01*
X125950000Y-109669999D01*
X125950000Y-109669999D01*
X125950000Y-109669999D01*
X125950000Y-109669999D01*
X125950000Y-109669999D01*
X125950000Y-109669999D01*
X125950000Y-109669999D01*
X125950000Y-109669999D01*
X125950000Y-109669999D01*
X125950001Y-109669999D01*
X125950001Y-109669999D01*
X125950001Y-109669999D01*
X125950001Y-109669999D01*
X125950001Y-109669999D01*
X125950001Y-109669999D01*
X125950001Y-109670000D01*
X125950001Y-109670000D01*
X125950001Y-109670000D01*
X125950001Y-109670000D01*
X125950001Y-109670000D01*
X125950001Y-109670000D01*
X125950001Y-109670000D01*
X125950000Y-109670000D01*
X125950000Y-109670000D02*
X125950001Y-109670000D01*
X125950001Y-109670000D01*
X125950001Y-109670000D01*
X125950001Y-109670000D01*
X125950001Y-109670000D01*
X125950001Y-109670000D01*
X125950001Y-109670001D01*
X125950001Y-109670001D01*
X125950001Y-109670001D01*
X125950001Y-109670001D01*
X125950001Y-109670001D01*
X125950001Y-109670001D01*
X125950001Y-109670001D01*
X125950000Y-109670001D01*
X125950000Y-109670001D01*
X125950000Y-109670001D01*
X125950000Y-109670001D01*
X125950000Y-109670001D01*
X125950000Y-109670001D01*
X125950000Y-109670001D01*
X125950000Y-109670001D01*
X125950000Y-109670001D01*
X125950000Y-109670001D01*
X125950000Y-109670001D01*
X125950000Y-109670001D01*
X125949999Y-109670001D01*
X125949999Y-109670001D01*
X125949999Y-109670001D01*
X125949999Y-109670001D01*
X125949999Y-109670001D01*
X125949999Y-109670001D01*
X125949999Y-109670000D01*
X125949999Y-109670000D01*
X125949999Y-109670000D01*
X125949999Y-109670000D01*
X125949999Y-109670000D01*
X125949999Y-109670000D01*
X125950000Y-109670000D01*
D12*
D13*
X126050000Y-109670000D02*
X126049999Y-109670000D01*
X126049999Y-109670000D01*
X126049999Y-109670000D01*
X126049999Y-109670000D01*
X126049999Y-109670000D01*
X126049999Y-109670000D01*
X126049999Y-109670000D01*
X126049999Y-109669999D01*
X126049999Y-109669999D01*
X126049999Y-109669999D01*
X126049999Y-109669999D01*
X126049999Y-109669999D01*
X126050000Y-109669999D01*
X126050000Y-109669999D01*
X126050000Y-109669999D01*
X126050000Y-109669999D01*
X126050000Y-109669999D01*
X126050000Y-109669999D01*
X126050000Y-109669999D01*
X126050000Y-109669999D01*
X126050000Y-109669999D01*
X126050000Y-109669999D01*
X126050000Y-109669999D01*
X126050000Y-109669999D01*
X126050001Y-109669999D01*
X126050001Y-109669999D01*
X126050001Y-109669999D01*
X126050001Y-109669999D01*
X126050001Y-109669999D01*
X126050001Y-109669999D01*
X126050001Y-109670000D01*
X126050001Y-109670000D01*
X126050001Y-109670000D01*
X126050001Y-109670000D01*
X126050001Y-109670000D01*
X126050001Y-109670000D01*
X126050001Y-109670000D01*
X126050000Y-109670000D01*
X126050000Y-109670000D02*
X126050001Y-109670000D01*
X126050001Y-109670000D01*
X126050001Y-109670000D01*
X126050001Y-109670000D01*
X126050001Y-109670000D01*
X126050001Y-109670000D01*
X126050001Y-109670001D01*
X126050001Y-109670001D01*
X126050001Y-109670001D01*
X126050001Y-109670001D01*
X126050001Y-109670001D01*
X126050001Y-109670001D01*
X126050001Y-109670001D01*
X126050000Y-109670001D01*
X126050000Y-109670001D01*
X126050000Y-109670001D01*
X126050000Y-109670001D01*
X126050000Y-109670001D01*
X126050000Y-109670001D01*
X126050000Y-109670001D01*
X126050000Y-109670001D01*
X126050000Y-109670001D01*
X126050000Y-109670001D01*
X126050000Y-109670001D01*
X126050000Y-109670001D01*
X126049999Y-109670001D01*
X126049999Y-109670001D01*
X126049999Y-109670001D01*
X126049999Y-109670001D01*
X126049999Y-109670001D01*
X126049999Y-109670001D01*
X126049999Y-109670000D01*
X126049999Y-109670000D01*
X126049999Y-109670000D01*
X126049999Y-109670000D01*
X126049999Y-109670000D01*
X126049999Y-109670000D01*
X126050000Y-109670000D01*
D12*
X125950000Y-109670000D02*
G75*
G02*
X126050000Y-109670000I50000J0D01*
G01*
X126050000Y-109670000D02*
G75*
G02*
X125950000Y-109670000I-50000J0D01*
G01*
%TO.C,R3*%
D11*
X129004724Y-108227500D02*
X128495276Y-108227500D01*
X129004724Y-109272500D02*
X128495276Y-109272500D01*
%TD*%
M02*
