M48
; DRILL file KiCad 10.0.1 date 2026-04-28T23:17:16
; FORMAT={-:-/ absolute / metric / decimal}
; #@! TF.CreationDate,2026-04-28T23:17:16+02:00
; #@! TF.GenerationSoftware,Kicad,Pcbnew,10.0.1
; #@! TF.FileFunction,Plated,1,4,PTH
FMAT,2
METRIC
; #@! TA.AperFunction,Plated,PTH,ViaDrill
T1C0.300
; #@! TA.AperFunction,Plated,PTH,ComponentDrill
T2C1.000
%
G90
G05
T1
X121.75Y-113.7
X122.6Y-113.5
X123.36Y-111.29
X124.75Y-103.05
X125.825Y-106.275
X126.6Y-109.6
X127.5Y-106.3
X128.9Y-112.4
T2
X117.3Y-97.84
X117.3Y-100.38
X117.3Y-102.92
X117.3Y-105.46
X117.3Y-108.0
X117.3Y-110.54
X117.3Y-113.08
X132.5Y-97.84
X132.5Y-100.38
X132.5Y-102.92
X132.5Y-105.46
X132.5Y-108.0
X132.5Y-110.54
X132.5Y-113.08
M30
