%TF.GenerationSoftware,KiCad,Pcbnew,10.0.1*%
%TF.CreationDate,2026-04-28T23:16:48+02:00*%
%TF.ProjectId,rtc_xiao_esp32s3,7274635f-7869-4616-9f5f-657370333273,1.1.2*%
%TF.SameCoordinates,Original*%
%TF.FileFunction,Copper,L4,Bot*%
%TF.FilePolarity,Positive*%
%FSLAX46Y46*%
G04 Gerber Fmt 4.6, Leading zero omitted, Abs format (unit mm)*
G04 Created by KiCad (PCBNEW 10.0.1) date 2026-04-28 23:16:48*
%MOMM*%
%LPD*%
G01*
G04 APERTURE LIST*
G04 Aperture macros list*
%AMRoundRect*
0 Rectangle with rounded corners*
0 $1 Rounding radius*
0 $2 $3 $4 $5 $6 $7 $8 $9 X,Y pos of 4 corners*
0 Add a 4 corners polygon primitive as box body*
4,1,4,$2,$3,$4,$5,$6,$7,$8,$9,$2,$3,0*
0 Add four circle primitives for the rounded corners*
1,1,$1+$1,$2,$3*
1,1,$1+$1,$4,$5*
1,1,$1+$1,$6,$7*
1,1,$1+$1,$8,$9*
0 Add four rect primitives between the rounded corners*
20,1,$1+$1,$2,$3,$4,$5,0*
20,1,$1+$1,$4,$5,$6,$7,0*
20,1,$1+$1,$6,$7,$8,$9,0*
20,1,$1+$1,$8,$9,$2,$3,0*%
%AMFreePoly0*
4,1,23,0.500000,-0.750000,0.000000,-0.750000,0.000000,-0.745722,-0.065263,-0.745722,-0.191342,-0.711940,-0.304381,-0.646677,-0.396677,-0.554381,-0.461940,-0.441342,-0.495722,-0.315263,-0.495722,-0.250000,-0.500000,-0.250000,-0.500000,0.250000,-0.495722,0.250000,-0.495722,0.315263,-0.461940,0.441342,-0.396677,0.554381,-0.304381,0.646677,-0.191342,0.711940,-0.065263,0.745722,0.000000,0.745722,
0.000000,0.750000,0.500000,0.750000,0.500000,-0.750000,0.500000,-0.750000,$1*%
%AMFreePoly1*
4,1,23,0.000000,0.745722,0.065263,0.745722,0.191342,0.711940,0.304381,0.646677,0.396677,0.554381,0.461940,0.441342,0.495722,0.315263,0.495722,0.250000,0.500000,0.250000,0.500000,-0.250000,0.495722,-0.250000,0.495722,-0.315263,0.461940,-0.441342,0.396677,-0.554381,0.304381,-0.646677,0.191342,-0.711940,0.065263,-0.745722,0.000000,-0.745722,0.000000,-0.750000,-0.500000,-0.750000,
-0.500000,0.750000,0.000000,0.750000,0.000000,0.745722,0.000000,0.745722,$1*%
G04 Aperture macros list end*
%TA.AperFunction,EtchedComponent*%
%ADD10C,0.000000*%
%TD*%
%TA.AperFunction,ComponentPad*%
%ADD11R,1.700000X1.700000*%
%TD*%
%TA.AperFunction,ComponentPad*%
%ADD12C,1.700000*%
%TD*%
%TA.AperFunction,SMDPad,CuDef*%
%ADD13RoundRect,0.237500X-0.250000X-0.237500X0.250000X-0.237500X0.250000X0.237500X-0.250000X0.237500X0*%
%TD*%
%TA.AperFunction,SMDPad,CuDef*%
%ADD14RoundRect,0.237500X0.237500X-0.300000X0.237500X0.300000X-0.237500X0.300000X-0.237500X-0.300000X0*%
%TD*%
%TA.AperFunction,SMDPad,CuDef*%
%ADD15FreePoly0,180.000000*%
%TD*%
%TA.AperFunction,SMDPad,CuDef*%
%ADD16FreePoly1,180.000000*%
%TD*%
%TA.AperFunction,SMDPad,CuDef*%
%ADD17RoundRect,0.237500X0.237500X-0.250000X0.237500X0.250000X-0.237500X0.250000X-0.237500X-0.250000X0*%
%TD*%
%TA.AperFunction,SMDPad,CuDef*%
%ADD18RoundRect,0.237500X0.250000X0.237500X-0.250000X0.237500X-0.250000X-0.237500X0.250000X-0.237500X0*%
%TD*%
%TA.AperFunction,SMDPad,CuDef*%
%ADD19RoundRect,0.237500X-0.300000X-0.237500X0.300000X-0.237500X0.300000X0.237500X-0.300000X0.237500X0*%
%TD*%
%TA.AperFunction,SMDPad,CuDef*%
%ADD20R,1.780000X5.080000*%
%TD*%
%TA.AperFunction,SMDPad,CuDef*%
%ADD21R,3.960000X3.960000*%
%TD*%
%TA.AperFunction,SMDPad,CuDef*%
%ADD22R,0.700000X0.270000*%
%TD*%
%TA.AperFunction,ViaPad*%
%ADD23C,0.500000*%
%TD*%
%TA.AperFunction,Conductor*%
%ADD24C,0.200000*%
%TD*%
%TA.AperFunction,Conductor*%
%ADD25C,0.400000*%
%TD*%
G04 APERTURE END LIST*
D10*
%TA.AperFunction,EtchedComponent*%
%TO.C,JP1*%
G36*
X121150000Y-108550000D02*
G01*
X120650000Y-108550000D01*
X120650000Y-107950000D01*
X121150000Y-107950000D01*
X121150000Y-108550000D01*
G37*
%TD.AperFunction*%
%TD*%
D11*
%TO.P,J1,1,Pin_1_1*%
%TO.N,unconnected-(J1-Pin_1-Pad1)*%
X117300000Y-97840000D03*
D12*
%TO.P,J1,2,Pin_2_2*%
%TO.N,unconnected-(J1-Pin_2-Pad2)*%
X117300000Y-100380000D03*
%TO.P,J1,3,Pin_3_3*%
%TO.N,unconnected-(J1-Pin_3-Pad3)*%
X117300000Y-102920000D03*
%TO.P,J1,4,Pin_4_4*%
%TO.N,unconnected-(J1-Pin_4-Pad4)*%
X117300000Y-105460000D03*
%TO.P,J1,5,Pin_5_5*%
%TO.N,+3V3*%
X117300000Y-108000000D03*
%TO.P,J1,6,Pin_6_6*%
%TO.N,GND*%
X117300000Y-110540000D03*
%TO.P,J1,7,Pin_7_7*%
%TO.N,unconnected-(J1-Pin_7-Pad7)*%
X117300000Y-113080000D03*
%TD*%
D11*
%TO.P,J2,1,Pin_1_1*%
%TO.N,unconnected-(J2-Pin_1-Pad1)*%
X132500000Y-97840000D03*
D12*
%TO.P,J2,2,Pin_2_2*%
%TO.N,SCL*%
X132500000Y-100380000D03*
%TO.P,J2,3,Pin_3_3*%
%TO.N,SDA*%
X132500000Y-102920000D03*
%TO.P,J2,4,Pin_4_4*%
%TO.N,CLKOUT*%
X132500000Y-105460000D03*
%TO.P,J2,5,Pin_5_5*%
%TO.N,unconnected-(J2-Pin_5-Pad5)*%
X132500000Y-108000000D03*
%TO.P,J2,6,Pin_6_6*%
%TO.N,unconnected-(J2-Pin_6-Pad6)*%
X132500000Y-110540000D03*
%TO.P,J2,7,Pin_7_7*%
%TO.N,NINT*%
X132500000Y-113080000D03*
%TD*%
D13*
%TO.P,R4,1*%
%TO.N,/VBACKUP*%
X127087500Y-113500000D03*
%TO.P,R4,2*%
%TO.N,NINT*%
X128912500Y-113500000D03*
%TD*%
D14*
%TO.P,C1,1*%
%TO.N,GND*%
X121750000Y-112612500D03*
%TO.P,C1,2*%
%TO.N,+3V3*%
X121750000Y-110887500D03*
%TD*%
D13*
%TO.P,R1,1*%
%TO.N,/EVI*%
X124000000Y-107250000D03*
%TO.P,R1,2*%
%TO.N,GND*%
X125825000Y-107250000D03*
%TD*%
D15*
%TO.P,JP1,1,A_1*%
%TO.N,/EVI*%
X121550000Y-108250000D03*
D16*
%TO.P,JP1,2,B_2*%
%TO.N,+3V3*%
X120250000Y-108250000D03*
%TD*%
D17*
%TO.P,R5,1*%
%TO.N,/VBACKUP*%
X120000000Y-112662500D03*
%TO.P,R5,2*%
%TO.N,/batt_to_r*%
X120000000Y-110837500D03*
%TD*%
D18*
%TO.P,R2,1*%
%TO.N,+3V3*%
X129662500Y-110750000D03*
%TO.P,R2,2*%
%TO.N,SDA*%
X127837500Y-110750000D03*
%TD*%
D19*
%TO.P,C2,1*%
%TO.N,GND*%
X123637500Y-113500000D03*
%TO.P,C2,2*%
%TO.N,/VBACKUP*%
X125362500Y-113500000D03*
%TD*%
D20*
%TO.P,BT1,1,+_1*%
%TO.N,/batt_to_r*%
X129400000Y-100450000D03*
X120000000Y-100450000D03*
D21*
%TO.P,BT1,2,-_2*%
%TO.N,GND*%
X124700000Y-100450000D03*
%TD*%
D22*
%TO.P,U1,1,CLKOUT_1*%
%TO.N,CLKOUT*%
X125250000Y-109670000D03*
%TO.P,U1,2,~{INT}_2*%
%TO.N,NINT*%
X125250000Y-110210000D03*
%TO.P,U1,3,SCL_3*%
%TO.N,SCL*%
X125250000Y-110750000D03*
%TO.P,U1,4,SDA_4*%
%TO.N,SDA*%
X125250000Y-111290000D03*
%TO.P,U1,5,VSS_5*%
%TO.N,GND*%
X124250000Y-111290000D03*
%TO.P,U1,6,VBACKUP_6*%
%TO.N,/VBACKUP*%
X124250000Y-110750000D03*
%TO.P,U1,7,VDD_7*%
%TO.N,+3V3*%
X124250000Y-110210000D03*
%TO.P,U1,8,EVI_8*%
%TO.N,/EVI*%
X124250000Y-109670000D03*
%TD*%
D18*
%TO.P,R3,1*%
%TO.N,+3V3*%
X129662500Y-108750000D03*
%TO.P,R3,2*%
%TO.N,SCL*%
X127837500Y-108750000D03*
%TD*%
D23*
%TO.N,GND*%
X123360000Y-111290000D03*
X124750000Y-103050000D03*
X121750000Y-113700000D03*
X125825000Y-106275000D03*
X122600000Y-113500000D03*
%TO.N,CLKOUT*%
X127500000Y-106300000D03*
%TO.N,NINT*%
X126600000Y-109600000D03*
X128900000Y-112400000D03*
%TD*%
%TO.N,+3V3*%
D24*
X122462500Y-110887500D02*
X121750000Y-110887500D01*
D25*
X127209000Y-115091000D02*
X128000000Y-114300000D01*
X130700000Y-111000000D02*
X130450000Y-110750000D01*
X128000000Y-114300000D02*
X128000000Y-112444400D01*
X118700000Y-111000000D02*
X119400000Y-111700000D01*
X129662500Y-108750000D02*
X130350000Y-108750000D01*
X118700000Y-109400000D02*
X118700000Y-111000000D01*
X130450000Y-110750000D02*
X129662500Y-110750000D01*
X130300000Y-111700000D02*
X130700000Y-111300000D01*
X119400000Y-111700000D02*
X118700000Y-112400000D01*
X130350000Y-108750000D02*
X130700000Y-109100000D01*
X120700000Y-111700000D02*
X120800000Y-111600000D01*
D24*
X124250000Y-110210000D02*
X123140000Y-110210000D01*
D25*
X121750000Y-110887500D02*
X120987500Y-110887500D01*
X120800000Y-109800000D02*
X120250000Y-109250000D01*
X130700000Y-110500000D02*
X130450000Y-110750000D01*
X119400000Y-111700000D02*
X120700000Y-111700000D01*
X120250000Y-109250000D02*
X120250000Y-108250000D01*
X130700000Y-109100000D02*
X130700000Y-110500000D01*
X128744400Y-111700000D02*
X130300000Y-111700000D01*
X120987500Y-110887500D02*
X120800000Y-110700000D01*
X118700000Y-112400000D02*
X118700000Y-114450000D01*
X120800000Y-110700000D02*
X120800000Y-109800000D01*
X118700000Y-114450000D02*
X119341000Y-115091000D01*
D24*
X123140000Y-110210000D02*
X122462500Y-110887500D01*
D25*
X120800000Y-111600000D02*
X120800000Y-111200000D01*
X121112500Y-110887500D02*
X121750000Y-110887500D01*
X130700000Y-111300000D02*
X130700000Y-111000000D01*
X119341000Y-115091000D02*
X127209000Y-115091000D01*
X120800000Y-111200000D02*
X121112500Y-110887500D01*
X117300000Y-108000000D02*
X118700000Y-109400000D01*
X128000000Y-112444400D02*
X128744400Y-111700000D01*
%TO.N,GND*%
X125825000Y-106275000D02*
X125825000Y-107250000D01*
X121750000Y-112612500D02*
X121750000Y-113700000D01*
X124750000Y-100500000D02*
X124750000Y-103050000D01*
D24*
X123360000Y-111290000D02*
X124250000Y-111290000D01*
D25*
X123637500Y-113500000D02*
X122600000Y-113500000D01*
%TO.N,SCL*%
D24*
X130800000Y-103952958D02*
X130800000Y-101900000D01*
X126379464Y-110459000D02*
X126791000Y-110459000D01*
X127837500Y-108750000D02*
X127837500Y-106915458D01*
X127837500Y-106915458D02*
X130800000Y-103952958D01*
X125250000Y-110750000D02*
X126088464Y-110750000D01*
X126088464Y-110750000D02*
X126379464Y-110459000D01*
X126791000Y-110459000D02*
X127837500Y-109412500D01*
X127837500Y-109412500D02*
X127837500Y-108750000D01*
X130800000Y-101900000D02*
X132200000Y-100500000D01*
%TO.N,SDA*%
X125250000Y-111290000D02*
X125960000Y-111290000D01*
X128700000Y-110500000D02*
X128700000Y-106500000D01*
X126500000Y-110750000D02*
X127837500Y-110750000D01*
X125960000Y-111290000D02*
X126500000Y-110750000D01*
X128700000Y-106500000D02*
X132200000Y-103000000D01*
X127837500Y-110750000D02*
X128450000Y-110750000D01*
X128450000Y-110750000D02*
X128700000Y-110500000D01*
%TO.N,CLKOUT*%
X126900000Y-107600000D02*
X126900000Y-106900000D01*
X126900000Y-106900000D02*
X127500000Y-106300000D01*
X126300000Y-109100000D02*
X126900000Y-108500000D01*
X126900000Y-108500000D02*
X126900000Y-107600000D01*
X125250000Y-109670000D02*
X125730000Y-109670000D01*
X125730000Y-109670000D02*
X126300000Y-109100000D01*
%TO.N,NINT*%
X125250000Y-110210000D02*
X125990000Y-110210000D01*
X128900000Y-112400000D02*
X128900000Y-113487500D01*
X128912500Y-113500000D02*
X130200000Y-113500000D01*
X125990000Y-110210000D02*
X126600000Y-109600000D01*
X130700000Y-113000000D02*
X132200000Y-113000000D01*
X128900000Y-113487500D02*
X128912500Y-113500000D01*
X130200000Y-113500000D02*
X130700000Y-113000000D01*
%TO.N,/VBACKUP*%
X122700000Y-112000000D02*
X123100000Y-112400000D01*
X123100000Y-110750000D02*
X122700000Y-111150000D01*
D25*
X127087500Y-114312500D02*
X126800000Y-114600000D01*
D24*
X125362500Y-112762500D02*
X125362500Y-113500000D01*
X122700000Y-111150000D02*
X122700000Y-112000000D01*
D25*
X120000000Y-113800000D02*
X120000000Y-112662500D01*
X126800000Y-114600000D02*
X120800000Y-114600000D01*
X120800000Y-114600000D02*
X120000000Y-113800000D01*
X127087500Y-113500000D02*
X125362500Y-113500000D01*
X127087500Y-113500000D02*
X127087500Y-114312500D01*
D24*
X123100000Y-112400000D02*
X125000000Y-112400000D01*
X124250000Y-110750000D02*
X123100000Y-110750000D01*
X125000000Y-112400000D02*
X125362500Y-112762500D01*
%TO.N,/EVI*%
X121550000Y-109350000D02*
X121550000Y-108250000D01*
X121870000Y-109670000D02*
X121550000Y-109350000D01*
X124250000Y-109670000D02*
X121870000Y-109670000D01*
X121550000Y-107650000D02*
X121950000Y-107250000D01*
X121550000Y-108250000D02*
X121550000Y-107650000D01*
X124000000Y-107250000D02*
X121950000Y-107250000D01*
%TO.N,/batt_to_r*%
D25*
X119200000Y-107500000D02*
X121100000Y-105600000D01*
X120000000Y-110837500D02*
X120000000Y-110200000D01*
X120050000Y-104550000D02*
X120050000Y-100500000D01*
X121100000Y-105600000D02*
X128150000Y-105600000D01*
X128150000Y-105600000D02*
X129450000Y-104300000D01*
X129450000Y-104300000D02*
X129450000Y-100500000D01*
X120000000Y-110200000D02*
X119200000Y-109400000D01*
X119200000Y-109400000D02*
X119200000Y-107500000D01*
X121100000Y-105600000D02*
X120050000Y-104550000D01*
%TD*%
M02*
