%TF.GenerationSoftware,KiCad,Pcbnew,9.0.7-9.0.7~ubuntu24.04.1*%
%TF.CreationDate,2026-01-03T22:14:33+01:00*%
%TF.ProjectId,rtc_xiao_esp32s3,7274635f-7869-4616-9f5f-657370333273,1.0*%
%TF.SameCoordinates,Original*%
%TF.FileFunction,Legend,Top*%
%TF.FilePolarity,Positive*%
%FSLAX46Y46*%
G04 Gerber Fmt 4.6, Leading zero omitted, Abs format (unit mm)*
G04 Created by KiCad (PCBNEW 9.0.7-9.0.7~ubuntu24.04.1) date 2026-01-03 22:14:33*
%MOMM*%
%LPD*%
G01*
G04 APERTURE LIST*
%ADD10C,0.200000*%
%ADD11C,0.100000*%
%ADD12C,0.000000*%
%ADD13C,0.300000*%
G04 APERTURE END LIST*
D10*
X126132780Y-97691101D02*
X126608971Y-97357768D01*
X126132780Y-97119673D02*
X127132780Y-97119673D01*
X127132780Y-97119673D02*
X127132780Y-97500625D01*
X127132780Y-97500625D02*
X127085161Y-97595863D01*
X127085161Y-97595863D02*
X127037542Y-97643482D01*
X127037542Y-97643482D02*
X126942304Y-97691101D01*
X126942304Y-97691101D02*
X126799447Y-97691101D01*
X126799447Y-97691101D02*
X126704209Y-97643482D01*
X126704209Y-97643482D02*
X126656590Y-97595863D01*
X126656590Y-97595863D02*
X126608971Y-97500625D01*
X126608971Y-97500625D02*
X126608971Y-97119673D01*
X127132780Y-97976816D02*
X127132780Y-98548244D01*
X126132780Y-98262530D02*
X127132780Y-98262530D01*
X126228019Y-99453006D02*
X126180400Y-99405387D01*
X126180400Y-99405387D02*
X126132780Y-99262530D01*
X126132780Y-99262530D02*
X126132780Y-99167292D01*
X126132780Y-99167292D02*
X126180400Y-99024435D01*
X126180400Y-99024435D02*
X126275638Y-98929197D01*
X126275638Y-98929197D02*
X126370876Y-98881578D01*
X126370876Y-98881578D02*
X126561352Y-98833959D01*
X126561352Y-98833959D02*
X126704209Y-98833959D01*
X126704209Y-98833959D02*
X126894685Y-98881578D01*
X126894685Y-98881578D02*
X126989923Y-98929197D01*
X126989923Y-98929197D02*
X127085161Y-99024435D01*
X127085161Y-99024435D02*
X127132780Y-99167292D01*
X127132780Y-99167292D02*
X127132780Y-99262530D01*
X127132780Y-99262530D02*
X127085161Y-99405387D01*
X127085161Y-99405387D02*
X127037542Y-99453006D01*
X126799447Y-100500626D02*
X126799447Y-100881578D01*
X126132780Y-100643483D02*
X126989923Y-100643483D01*
X126989923Y-100643483D02*
X127085161Y-100691102D01*
X127085161Y-100691102D02*
X127132780Y-100786340D01*
X127132780Y-100786340D02*
X127132780Y-100881578D01*
X126132780Y-101357769D02*
X126180400Y-101262531D01*
X126180400Y-101262531D02*
X126228019Y-101214912D01*
X126228019Y-101214912D02*
X126323257Y-101167293D01*
X126323257Y-101167293D02*
X126608971Y-101167293D01*
X126608971Y-101167293D02*
X126704209Y-101214912D01*
X126704209Y-101214912D02*
X126751828Y-101262531D01*
X126751828Y-101262531D02*
X126799447Y-101357769D01*
X126799447Y-101357769D02*
X126799447Y-101500626D01*
X126799447Y-101500626D02*
X126751828Y-101595864D01*
X126751828Y-101595864D02*
X126704209Y-101643483D01*
X126704209Y-101643483D02*
X126608971Y-101691102D01*
X126608971Y-101691102D02*
X126323257Y-101691102D01*
X126323257Y-101691102D02*
X126228019Y-101643483D01*
X126228019Y-101643483D02*
X126180400Y-101595864D01*
X126180400Y-101595864D02*
X126132780Y-101500626D01*
X126132780Y-101500626D02*
X126132780Y-101357769D01*
X126132780Y-102119674D02*
X126799447Y-102119674D01*
X126608971Y-102119674D02*
X126704209Y-102167293D01*
X126704209Y-102167293D02*
X126751828Y-102214912D01*
X126751828Y-102214912D02*
X126799447Y-102310150D01*
X126799447Y-102310150D02*
X126799447Y-102405388D01*
X127132780Y-103405389D02*
X126132780Y-104072055D01*
X127132780Y-104072055D02*
X126132780Y-103405389D01*
X126132780Y-104453008D02*
X127132780Y-104453008D01*
X126418495Y-104881579D02*
X126418495Y-105357769D01*
X126132780Y-104786341D02*
X127132780Y-105119674D01*
X127132780Y-105119674D02*
X126132780Y-105453007D01*
X127132780Y-105976817D02*
X127132780Y-106167293D01*
X127132780Y-106167293D02*
X127085161Y-106262531D01*
X127085161Y-106262531D02*
X126989923Y-106357769D01*
X126989923Y-106357769D02*
X126799447Y-106405388D01*
X126799447Y-106405388D02*
X126466114Y-106405388D01*
X126466114Y-106405388D02*
X126275638Y-106357769D01*
X126275638Y-106357769D02*
X126180400Y-106262531D01*
X126180400Y-106262531D02*
X126132780Y-106167293D01*
X126132780Y-106167293D02*
X126132780Y-105976817D01*
X126132780Y-105976817D02*
X126180400Y-105881579D01*
X126180400Y-105881579D02*
X126275638Y-105786341D01*
X126275638Y-105786341D02*
X126466114Y-105738722D01*
X126466114Y-105738722D02*
X126799447Y-105738722D01*
X126799447Y-105738722D02*
X126989923Y-105786341D01*
X126989923Y-105786341D02*
X127085161Y-105881579D01*
X127085161Y-105881579D02*
X127132780Y-105976817D01*
X126656590Y-107595865D02*
X126656590Y-107929198D01*
X126132780Y-108072055D02*
X126132780Y-107595865D01*
X126132780Y-107595865D02*
X127132780Y-107595865D01*
X127132780Y-107595865D02*
X127132780Y-108072055D01*
X126180400Y-108453008D02*
X126132780Y-108595865D01*
X126132780Y-108595865D02*
X126132780Y-108833960D01*
X126132780Y-108833960D02*
X126180400Y-108929198D01*
X126180400Y-108929198D02*
X126228019Y-108976817D01*
X126228019Y-108976817D02*
X126323257Y-109024436D01*
X126323257Y-109024436D02*
X126418495Y-109024436D01*
X126418495Y-109024436D02*
X126513733Y-108976817D01*
X126513733Y-108976817D02*
X126561352Y-108929198D01*
X126561352Y-108929198D02*
X126608971Y-108833960D01*
X126608971Y-108833960D02*
X126656590Y-108643484D01*
X126656590Y-108643484D02*
X126704209Y-108548246D01*
X126704209Y-108548246D02*
X126751828Y-108500627D01*
X126751828Y-108500627D02*
X126847066Y-108453008D01*
X126847066Y-108453008D02*
X126942304Y-108453008D01*
X126942304Y-108453008D02*
X127037542Y-108500627D01*
X127037542Y-108500627D02*
X127085161Y-108548246D01*
X127085161Y-108548246D02*
X127132780Y-108643484D01*
X127132780Y-108643484D02*
X127132780Y-108881579D01*
X127132780Y-108881579D02*
X127085161Y-109024436D01*
X126132780Y-109453008D02*
X127132780Y-109453008D01*
X127132780Y-109453008D02*
X127132780Y-109833960D01*
X127132780Y-109833960D02*
X127085161Y-109929198D01*
X127085161Y-109929198D02*
X127037542Y-109976817D01*
X127037542Y-109976817D02*
X126942304Y-110024436D01*
X126942304Y-110024436D02*
X126799447Y-110024436D01*
X126799447Y-110024436D02*
X126704209Y-109976817D01*
X126704209Y-109976817D02*
X126656590Y-109929198D01*
X126656590Y-109929198D02*
X126608971Y-109833960D01*
X126608971Y-109833960D02*
X126608971Y-109453008D01*
X127132780Y-110357770D02*
X127132780Y-110976817D01*
X127132780Y-110976817D02*
X126751828Y-110643484D01*
X126751828Y-110643484D02*
X126751828Y-110786341D01*
X126751828Y-110786341D02*
X126704209Y-110881579D01*
X126704209Y-110881579D02*
X126656590Y-110929198D01*
X126656590Y-110929198D02*
X126561352Y-110976817D01*
X126561352Y-110976817D02*
X126323257Y-110976817D01*
X126323257Y-110976817D02*
X126228019Y-110929198D01*
X126228019Y-110929198D02*
X126180400Y-110881579D01*
X126180400Y-110881579D02*
X126132780Y-110786341D01*
X126132780Y-110786341D02*
X126132780Y-110500627D01*
X126132780Y-110500627D02*
X126180400Y-110405389D01*
X126180400Y-110405389D02*
X126228019Y-110357770D01*
X127037542Y-111357770D02*
X127085161Y-111405389D01*
X127085161Y-111405389D02*
X127132780Y-111500627D01*
X127132780Y-111500627D02*
X127132780Y-111738722D01*
X127132780Y-111738722D02*
X127085161Y-111833960D01*
X127085161Y-111833960D02*
X127037542Y-111881579D01*
X127037542Y-111881579D02*
X126942304Y-111929198D01*
X126942304Y-111929198D02*
X126847066Y-111929198D01*
X126847066Y-111929198D02*
X126704209Y-111881579D01*
X126704209Y-111881579D02*
X126132780Y-111310151D01*
X126132780Y-111310151D02*
X126132780Y-111929198D01*
X126180400Y-112310151D02*
X126132780Y-112453008D01*
X126132780Y-112453008D02*
X126132780Y-112691103D01*
X126132780Y-112691103D02*
X126180400Y-112786341D01*
X126180400Y-112786341D02*
X126228019Y-112833960D01*
X126228019Y-112833960D02*
X126323257Y-112881579D01*
X126323257Y-112881579D02*
X126418495Y-112881579D01*
X126418495Y-112881579D02*
X126513733Y-112833960D01*
X126513733Y-112833960D02*
X126561352Y-112786341D01*
X126561352Y-112786341D02*
X126608971Y-112691103D01*
X126608971Y-112691103D02*
X126656590Y-112500627D01*
X126656590Y-112500627D02*
X126704209Y-112405389D01*
X126704209Y-112405389D02*
X126751828Y-112357770D01*
X126751828Y-112357770D02*
X126847066Y-112310151D01*
X126847066Y-112310151D02*
X126942304Y-112310151D01*
X126942304Y-112310151D02*
X127037542Y-112357770D01*
X127037542Y-112357770D02*
X127085161Y-112405389D01*
X127085161Y-112405389D02*
X127132780Y-112500627D01*
X127132780Y-112500627D02*
X127132780Y-112738722D01*
X127132780Y-112738722D02*
X127085161Y-112881579D01*
X127132780Y-113214913D02*
X127132780Y-113833960D01*
X127132780Y-113833960D02*
X126751828Y-113500627D01*
X126751828Y-113500627D02*
X126751828Y-113643484D01*
X126751828Y-113643484D02*
X126704209Y-113738722D01*
X126704209Y-113738722D02*
X126656590Y-113786341D01*
X126656590Y-113786341D02*
X126561352Y-113833960D01*
X126561352Y-113833960D02*
X126323257Y-113833960D01*
X126323257Y-113833960D02*
X126228019Y-113786341D01*
X126228019Y-113786341D02*
X126180400Y-113738722D01*
X126180400Y-113738722D02*
X126132780Y-113643484D01*
X126132780Y-113643484D02*
X126132780Y-113357770D01*
X126132780Y-113357770D02*
X126180400Y-113262532D01*
X126180400Y-113262532D02*
X126228019Y-113214913D01*
D11*
X122353104Y-98213408D02*
X122734057Y-97946741D01*
X122353104Y-97756265D02*
X123153104Y-97756265D01*
X123153104Y-97756265D02*
X123153104Y-98061027D01*
X123153104Y-98061027D02*
X123115009Y-98137217D01*
X123115009Y-98137217D02*
X123076914Y-98175312D01*
X123076914Y-98175312D02*
X123000723Y-98213408D01*
X123000723Y-98213408D02*
X122886438Y-98213408D01*
X122886438Y-98213408D02*
X122810247Y-98175312D01*
X122810247Y-98175312D02*
X122772152Y-98137217D01*
X122772152Y-98137217D02*
X122734057Y-98061027D01*
X122734057Y-98061027D02*
X122734057Y-97756265D01*
X122391200Y-98861027D02*
X122353104Y-98784836D01*
X122353104Y-98784836D02*
X122353104Y-98632455D01*
X122353104Y-98632455D02*
X122391200Y-98556265D01*
X122391200Y-98556265D02*
X122467390Y-98518169D01*
X122467390Y-98518169D02*
X122772152Y-98518169D01*
X122772152Y-98518169D02*
X122848342Y-98556265D01*
X122848342Y-98556265D02*
X122886438Y-98632455D01*
X122886438Y-98632455D02*
X122886438Y-98784836D01*
X122886438Y-98784836D02*
X122848342Y-98861027D01*
X122848342Y-98861027D02*
X122772152Y-98899122D01*
X122772152Y-98899122D02*
X122695961Y-98899122D01*
X122695961Y-98899122D02*
X122619771Y-98518169D01*
X122886438Y-99165788D02*
X122353104Y-99356264D01*
X122353104Y-99356264D02*
X122886438Y-99546741D01*
X122353104Y-99851503D02*
X122886438Y-99851503D01*
X123153104Y-99851503D02*
X123115009Y-99813407D01*
X123115009Y-99813407D02*
X123076914Y-99851503D01*
X123076914Y-99851503D02*
X123115009Y-99889598D01*
X123115009Y-99889598D02*
X123153104Y-99851503D01*
X123153104Y-99851503D02*
X123076914Y-99851503D01*
X122391200Y-100537217D02*
X122353104Y-100461026D01*
X122353104Y-100461026D02*
X122353104Y-100308645D01*
X122353104Y-100308645D02*
X122391200Y-100232455D01*
X122391200Y-100232455D02*
X122467390Y-100194359D01*
X122467390Y-100194359D02*
X122772152Y-100194359D01*
X122772152Y-100194359D02*
X122848342Y-100232455D01*
X122848342Y-100232455D02*
X122886438Y-100308645D01*
X122886438Y-100308645D02*
X122886438Y-100461026D01*
X122886438Y-100461026D02*
X122848342Y-100537217D01*
X122848342Y-100537217D02*
X122772152Y-100575312D01*
X122772152Y-100575312D02*
X122695961Y-100575312D01*
X122695961Y-100575312D02*
X122619771Y-100194359D01*
X122886438Y-100841978D02*
X122353104Y-100994359D01*
X122353104Y-100994359D02*
X122734057Y-101146740D01*
X122734057Y-101146740D02*
X122353104Y-101299121D01*
X122353104Y-101299121D02*
X122886438Y-101451502D01*
X122391200Y-102061026D02*
X122353104Y-101984835D01*
X122353104Y-101984835D02*
X122353104Y-101832454D01*
X122353104Y-101832454D02*
X122391200Y-101756264D01*
X122391200Y-101756264D02*
X122467390Y-101718168D01*
X122467390Y-101718168D02*
X122772152Y-101718168D01*
X122772152Y-101718168D02*
X122848342Y-101756264D01*
X122848342Y-101756264D02*
X122886438Y-101832454D01*
X122886438Y-101832454D02*
X122886438Y-101984835D01*
X122886438Y-101984835D02*
X122848342Y-102061026D01*
X122848342Y-102061026D02*
X122772152Y-102099121D01*
X122772152Y-102099121D02*
X122695961Y-102099121D01*
X122695961Y-102099121D02*
X122619771Y-101718168D01*
X122353104Y-102441978D02*
X122886438Y-102441978D01*
X122734057Y-102441978D02*
X122810247Y-102480073D01*
X122810247Y-102480073D02*
X122848342Y-102518168D01*
X122848342Y-102518168D02*
X122886438Y-102594359D01*
X122886438Y-102594359D02*
X122886438Y-102670549D01*
X122429295Y-102937216D02*
X122391200Y-102975311D01*
X122391200Y-102975311D02*
X122353104Y-102937216D01*
X122353104Y-102937216D02*
X122391200Y-102899120D01*
X122391200Y-102899120D02*
X122429295Y-102937216D01*
X122429295Y-102937216D02*
X122353104Y-102937216D01*
X122848342Y-102937216D02*
X122810247Y-102975311D01*
X122810247Y-102975311D02*
X122772152Y-102937216D01*
X122772152Y-102937216D02*
X122810247Y-102899120D01*
X122810247Y-102899120D02*
X122848342Y-102937216D01*
X122848342Y-102937216D02*
X122772152Y-102937216D01*
X122353104Y-103927692D02*
X123153104Y-103927692D01*
X123153104Y-103927692D02*
X123153104Y-104232454D01*
X123153104Y-104232454D02*
X123115009Y-104308644D01*
X123115009Y-104308644D02*
X123076914Y-104346739D01*
X123076914Y-104346739D02*
X123000723Y-104384835D01*
X123000723Y-104384835D02*
X122886438Y-104384835D01*
X122886438Y-104384835D02*
X122810247Y-104346739D01*
X122810247Y-104346739D02*
X122772152Y-104308644D01*
X122772152Y-104308644D02*
X122734057Y-104232454D01*
X122734057Y-104232454D02*
X122734057Y-103927692D01*
X122353104Y-104727692D02*
X122886438Y-104727692D01*
X123153104Y-104727692D02*
X123115009Y-104689596D01*
X123115009Y-104689596D02*
X123076914Y-104727692D01*
X123076914Y-104727692D02*
X123115009Y-104765787D01*
X123115009Y-104765787D02*
X123153104Y-104727692D01*
X123153104Y-104727692D02*
X123076914Y-104727692D01*
X122353104Y-105222929D02*
X122391200Y-105146739D01*
X122391200Y-105146739D02*
X122429295Y-105108644D01*
X122429295Y-105108644D02*
X122505485Y-105070548D01*
X122505485Y-105070548D02*
X122734057Y-105070548D01*
X122734057Y-105070548D02*
X122810247Y-105108644D01*
X122810247Y-105108644D02*
X122848342Y-105146739D01*
X122848342Y-105146739D02*
X122886438Y-105222929D01*
X122886438Y-105222929D02*
X122886438Y-105337215D01*
X122886438Y-105337215D02*
X122848342Y-105413406D01*
X122848342Y-105413406D02*
X122810247Y-105451501D01*
X122810247Y-105451501D02*
X122734057Y-105489596D01*
X122734057Y-105489596D02*
X122505485Y-105489596D01*
X122505485Y-105489596D02*
X122429295Y-105451501D01*
X122429295Y-105451501D02*
X122391200Y-105413406D01*
X122391200Y-105413406D02*
X122353104Y-105337215D01*
X122353104Y-105337215D02*
X122353104Y-105222929D01*
X122886438Y-105718168D02*
X122886438Y-106022930D01*
X123153104Y-105832454D02*
X122467390Y-105832454D01*
X122467390Y-105832454D02*
X122391200Y-105870549D01*
X122391200Y-105870549D02*
X122353104Y-105946739D01*
X122353104Y-105946739D02*
X122353104Y-106022930D01*
X122353104Y-106289597D02*
X122886438Y-106289597D01*
X122734057Y-106289597D02*
X122810247Y-106327692D01*
X122810247Y-106327692D02*
X122848342Y-106365787D01*
X122848342Y-106365787D02*
X122886438Y-106441978D01*
X122886438Y-106441978D02*
X122886438Y-106518168D01*
X122353104Y-107775311D02*
X122353104Y-107394359D01*
X122353104Y-107394359D02*
X123153104Y-107394359D01*
X122391200Y-108346740D02*
X122353104Y-108270549D01*
X122353104Y-108270549D02*
X122353104Y-108118168D01*
X122353104Y-108118168D02*
X122391200Y-108041978D01*
X122391200Y-108041978D02*
X122467390Y-108003882D01*
X122467390Y-108003882D02*
X122772152Y-108003882D01*
X122772152Y-108003882D02*
X122848342Y-108041978D01*
X122848342Y-108041978D02*
X122886438Y-108118168D01*
X122886438Y-108118168D02*
X122886438Y-108270549D01*
X122886438Y-108270549D02*
X122848342Y-108346740D01*
X122848342Y-108346740D02*
X122772152Y-108384835D01*
X122772152Y-108384835D02*
X122695961Y-108384835D01*
X122695961Y-108384835D02*
X122619771Y-108003882D01*
X122391200Y-108689596D02*
X122353104Y-108765787D01*
X122353104Y-108765787D02*
X122353104Y-108918168D01*
X122353104Y-108918168D02*
X122391200Y-108994358D01*
X122391200Y-108994358D02*
X122467390Y-109032454D01*
X122467390Y-109032454D02*
X122505485Y-109032454D01*
X122505485Y-109032454D02*
X122581676Y-108994358D01*
X122581676Y-108994358D02*
X122619771Y-108918168D01*
X122619771Y-108918168D02*
X122619771Y-108803882D01*
X122619771Y-108803882D02*
X122657866Y-108727692D01*
X122657866Y-108727692D02*
X122734057Y-108689596D01*
X122734057Y-108689596D02*
X122772152Y-108689596D01*
X122772152Y-108689596D02*
X122848342Y-108727692D01*
X122848342Y-108727692D02*
X122886438Y-108803882D01*
X122886438Y-108803882D02*
X122886438Y-108918168D01*
X122886438Y-108918168D02*
X122848342Y-108994358D01*
X122353104Y-109375311D02*
X122886438Y-109375311D01*
X123153104Y-109375311D02*
X123115009Y-109337215D01*
X123115009Y-109337215D02*
X123076914Y-109375311D01*
X123076914Y-109375311D02*
X123115009Y-109413406D01*
X123115009Y-109413406D02*
X123153104Y-109375311D01*
X123153104Y-109375311D02*
X123076914Y-109375311D01*
X122391200Y-110099120D02*
X122353104Y-110022929D01*
X122353104Y-110022929D02*
X122353104Y-109870548D01*
X122353104Y-109870548D02*
X122391200Y-109794358D01*
X122391200Y-109794358D02*
X122429295Y-109756263D01*
X122429295Y-109756263D02*
X122505485Y-109718167D01*
X122505485Y-109718167D02*
X122734057Y-109718167D01*
X122734057Y-109718167D02*
X122810247Y-109756263D01*
X122810247Y-109756263D02*
X122848342Y-109794358D01*
X122848342Y-109794358D02*
X122886438Y-109870548D01*
X122886438Y-109870548D02*
X122886438Y-110022929D01*
X122886438Y-110022929D02*
X122848342Y-110099120D01*
X122353104Y-110441977D02*
X123153104Y-110441977D01*
X122657866Y-110518167D02*
X122353104Y-110746739D01*
X122886438Y-110746739D02*
X122581676Y-110441977D01*
X122353104Y-111089596D02*
X122886438Y-111089596D01*
X123153104Y-111089596D02*
X123115009Y-111051500D01*
X123115009Y-111051500D02*
X123076914Y-111089596D01*
X123076914Y-111089596D02*
X123115009Y-111127691D01*
X123115009Y-111127691D02*
X123153104Y-111089596D01*
X123153104Y-111089596D02*
X123076914Y-111089596D01*
X123831676Y-97718169D02*
X123831676Y-98099122D01*
X123603104Y-97641979D02*
X124403104Y-97908646D01*
X124403104Y-97908646D02*
X123603104Y-98175312D01*
X124136438Y-98784836D02*
X123603104Y-98784836D01*
X124136438Y-98441979D02*
X123717390Y-98441979D01*
X123717390Y-98441979D02*
X123641200Y-98480074D01*
X123641200Y-98480074D02*
X123603104Y-98556264D01*
X123603104Y-98556264D02*
X123603104Y-98670550D01*
X123603104Y-98670550D02*
X123641200Y-98746741D01*
X123641200Y-98746741D02*
X123679295Y-98784836D01*
X124136438Y-99051503D02*
X124136438Y-99356265D01*
X124403104Y-99165789D02*
X123717390Y-99165789D01*
X123717390Y-99165789D02*
X123641200Y-99203884D01*
X123641200Y-99203884D02*
X123603104Y-99280074D01*
X123603104Y-99280074D02*
X123603104Y-99356265D01*
X123603104Y-99622932D02*
X124403104Y-99622932D01*
X123603104Y-99965789D02*
X124022152Y-99965789D01*
X124022152Y-99965789D02*
X124098342Y-99927694D01*
X124098342Y-99927694D02*
X124136438Y-99851503D01*
X124136438Y-99851503D02*
X124136438Y-99737217D01*
X124136438Y-99737217D02*
X124098342Y-99661027D01*
X124098342Y-99661027D02*
X124060247Y-99622932D01*
X123603104Y-100461027D02*
X123641200Y-100384837D01*
X123641200Y-100384837D02*
X123679295Y-100346742D01*
X123679295Y-100346742D02*
X123755485Y-100308646D01*
X123755485Y-100308646D02*
X123984057Y-100308646D01*
X123984057Y-100308646D02*
X124060247Y-100346742D01*
X124060247Y-100346742D02*
X124098342Y-100384837D01*
X124098342Y-100384837D02*
X124136438Y-100461027D01*
X124136438Y-100461027D02*
X124136438Y-100575313D01*
X124136438Y-100575313D02*
X124098342Y-100651504D01*
X124098342Y-100651504D02*
X124060247Y-100689599D01*
X124060247Y-100689599D02*
X123984057Y-100727694D01*
X123984057Y-100727694D02*
X123755485Y-100727694D01*
X123755485Y-100727694D02*
X123679295Y-100689599D01*
X123679295Y-100689599D02*
X123641200Y-100651504D01*
X123641200Y-100651504D02*
X123603104Y-100575313D01*
X123603104Y-100575313D02*
X123603104Y-100461027D01*
X123603104Y-101070552D02*
X124136438Y-101070552D01*
X123984057Y-101070552D02*
X124060247Y-101108647D01*
X124060247Y-101108647D02*
X124098342Y-101146742D01*
X124098342Y-101146742D02*
X124136438Y-101222933D01*
X124136438Y-101222933D02*
X124136438Y-101299123D01*
X123679295Y-101565790D02*
X123641200Y-101603885D01*
X123641200Y-101603885D02*
X123603104Y-101565790D01*
X123603104Y-101565790D02*
X123641200Y-101527694D01*
X123641200Y-101527694D02*
X123679295Y-101565790D01*
X123679295Y-101565790D02*
X123603104Y-101565790D01*
X124098342Y-101565790D02*
X124060247Y-101603885D01*
X124060247Y-101603885D02*
X124022152Y-101565790D01*
X124022152Y-101565790D02*
X124060247Y-101527694D01*
X124060247Y-101527694D02*
X124098342Y-101565790D01*
X124098342Y-101565790D02*
X124022152Y-101565790D01*
X124365009Y-102975313D02*
X124403104Y-102899123D01*
X124403104Y-102899123D02*
X124403104Y-102784837D01*
X124403104Y-102784837D02*
X124365009Y-102670551D01*
X124365009Y-102670551D02*
X124288819Y-102594361D01*
X124288819Y-102594361D02*
X124212628Y-102556266D01*
X124212628Y-102556266D02*
X124060247Y-102518170D01*
X124060247Y-102518170D02*
X123945961Y-102518170D01*
X123945961Y-102518170D02*
X123793580Y-102556266D01*
X123793580Y-102556266D02*
X123717390Y-102594361D01*
X123717390Y-102594361D02*
X123641200Y-102670551D01*
X123641200Y-102670551D02*
X123603104Y-102784837D01*
X123603104Y-102784837D02*
X123603104Y-102861028D01*
X123603104Y-102861028D02*
X123641200Y-102975313D01*
X123641200Y-102975313D02*
X123679295Y-103013409D01*
X123679295Y-103013409D02*
X123945961Y-103013409D01*
X123945961Y-103013409D02*
X123945961Y-102861028D01*
X123603104Y-103356266D02*
X124136438Y-103356266D01*
X123984057Y-103356266D02*
X124060247Y-103394361D01*
X124060247Y-103394361D02*
X124098342Y-103432456D01*
X124098342Y-103432456D02*
X124136438Y-103508647D01*
X124136438Y-103508647D02*
X124136438Y-103584837D01*
X124136438Y-103775313D02*
X124136438Y-104194361D01*
X124136438Y-104194361D02*
X123603104Y-103775313D01*
X123603104Y-103775313D02*
X123603104Y-104194361D01*
X123641200Y-104803885D02*
X123603104Y-104727694D01*
X123603104Y-104727694D02*
X123603104Y-104575313D01*
X123603104Y-104575313D02*
X123641200Y-104499123D01*
X123641200Y-104499123D02*
X123717390Y-104461027D01*
X123717390Y-104461027D02*
X124022152Y-104461027D01*
X124022152Y-104461027D02*
X124098342Y-104499123D01*
X124098342Y-104499123D02*
X124136438Y-104575313D01*
X124136438Y-104575313D02*
X124136438Y-104727694D01*
X124136438Y-104727694D02*
X124098342Y-104803885D01*
X124098342Y-104803885D02*
X124022152Y-104841980D01*
X124022152Y-104841980D02*
X123945961Y-104841980D01*
X123945961Y-104841980D02*
X123869771Y-104461027D01*
X124136438Y-105527694D02*
X123488819Y-105527694D01*
X123488819Y-105527694D02*
X123412628Y-105489599D01*
X123412628Y-105489599D02*
X123374533Y-105451503D01*
X123374533Y-105451503D02*
X123336438Y-105375313D01*
X123336438Y-105375313D02*
X123336438Y-105261027D01*
X123336438Y-105261027D02*
X123374533Y-105184837D01*
X123641200Y-105527694D02*
X123603104Y-105451503D01*
X123603104Y-105451503D02*
X123603104Y-105299122D01*
X123603104Y-105299122D02*
X123641200Y-105222932D01*
X123641200Y-105222932D02*
X123679295Y-105184837D01*
X123679295Y-105184837D02*
X123755485Y-105146741D01*
X123755485Y-105146741D02*
X123984057Y-105146741D01*
X123984057Y-105146741D02*
X124060247Y-105184837D01*
X124060247Y-105184837D02*
X124098342Y-105222932D01*
X124098342Y-105222932D02*
X124136438Y-105299122D01*
X124136438Y-105299122D02*
X124136438Y-105451503D01*
X124136438Y-105451503D02*
X124098342Y-105527694D01*
X123603104Y-106022932D02*
X123641200Y-105946742D01*
X123641200Y-105946742D02*
X123679295Y-105908647D01*
X123679295Y-105908647D02*
X123755485Y-105870551D01*
X123755485Y-105870551D02*
X123984057Y-105870551D01*
X123984057Y-105870551D02*
X124060247Y-105908647D01*
X124060247Y-105908647D02*
X124098342Y-105946742D01*
X124098342Y-105946742D02*
X124136438Y-106022932D01*
X124136438Y-106022932D02*
X124136438Y-106137218D01*
X124136438Y-106137218D02*
X124098342Y-106213409D01*
X124098342Y-106213409D02*
X124060247Y-106251504D01*
X124060247Y-106251504D02*
X123984057Y-106289599D01*
X123984057Y-106289599D02*
X123755485Y-106289599D01*
X123755485Y-106289599D02*
X123679295Y-106251504D01*
X123679295Y-106251504D02*
X123641200Y-106213409D01*
X123641200Y-106213409D02*
X123603104Y-106137218D01*
X123603104Y-106137218D02*
X123603104Y-106022932D01*
X123603104Y-106632457D02*
X124136438Y-106632457D01*
X123984057Y-106632457D02*
X124060247Y-106670552D01*
X124060247Y-106670552D02*
X124098342Y-106708647D01*
X124098342Y-106708647D02*
X124136438Y-106784838D01*
X124136438Y-106784838D02*
X124136438Y-106861028D01*
X124136438Y-107051504D02*
X124136438Y-107470552D01*
X124136438Y-107470552D02*
X123603104Y-107051504D01*
X123603104Y-107051504D02*
X123603104Y-107470552D01*
X123603104Y-108384838D02*
X124403104Y-108384838D01*
X124403104Y-108384838D02*
X124403104Y-108689600D01*
X124403104Y-108689600D02*
X124365009Y-108765790D01*
X124365009Y-108765790D02*
X124326914Y-108803885D01*
X124326914Y-108803885D02*
X124250723Y-108841981D01*
X124250723Y-108841981D02*
X124136438Y-108841981D01*
X124136438Y-108841981D02*
X124060247Y-108803885D01*
X124060247Y-108803885D02*
X124022152Y-108765790D01*
X124022152Y-108765790D02*
X123984057Y-108689600D01*
X123984057Y-108689600D02*
X123984057Y-108384838D01*
X123603104Y-109299123D02*
X123641200Y-109222933D01*
X123641200Y-109222933D02*
X123679295Y-109184838D01*
X123679295Y-109184838D02*
X123755485Y-109146742D01*
X123755485Y-109146742D02*
X123984057Y-109146742D01*
X123984057Y-109146742D02*
X124060247Y-109184838D01*
X124060247Y-109184838D02*
X124098342Y-109222933D01*
X124098342Y-109222933D02*
X124136438Y-109299123D01*
X124136438Y-109299123D02*
X124136438Y-109413409D01*
X124136438Y-109413409D02*
X124098342Y-109489600D01*
X124098342Y-109489600D02*
X124060247Y-109527695D01*
X124060247Y-109527695D02*
X123984057Y-109565790D01*
X123984057Y-109565790D02*
X123755485Y-109565790D01*
X123755485Y-109565790D02*
X123679295Y-109527695D01*
X123679295Y-109527695D02*
X123641200Y-109489600D01*
X123641200Y-109489600D02*
X123603104Y-109413409D01*
X123603104Y-109413409D02*
X123603104Y-109299123D01*
X124136438Y-109794362D02*
X124136438Y-110099124D01*
X124403104Y-109908648D02*
X123717390Y-109908648D01*
X123717390Y-109908648D02*
X123641200Y-109946743D01*
X123641200Y-109946743D02*
X123603104Y-110022933D01*
X123603104Y-110022933D02*
X123603104Y-110099124D01*
X123603104Y-110480076D02*
X123641200Y-110403886D01*
X123641200Y-110403886D02*
X123679295Y-110365791D01*
X123679295Y-110365791D02*
X123755485Y-110327695D01*
X123755485Y-110327695D02*
X123984057Y-110327695D01*
X123984057Y-110327695D02*
X124060247Y-110365791D01*
X124060247Y-110365791D02*
X124098342Y-110403886D01*
X124098342Y-110403886D02*
X124136438Y-110480076D01*
X124136438Y-110480076D02*
X124136438Y-110594362D01*
X124136438Y-110594362D02*
X124098342Y-110670553D01*
X124098342Y-110670553D02*
X124060247Y-110708648D01*
X124060247Y-110708648D02*
X123984057Y-110746743D01*
X123984057Y-110746743D02*
X123755485Y-110746743D01*
X123755485Y-110746743D02*
X123679295Y-110708648D01*
X123679295Y-110708648D02*
X123641200Y-110670553D01*
X123641200Y-110670553D02*
X123603104Y-110594362D01*
X123603104Y-110594362D02*
X123603104Y-110480076D01*
X123641200Y-111432458D02*
X123603104Y-111356267D01*
X123603104Y-111356267D02*
X123603104Y-111203886D01*
X123603104Y-111203886D02*
X123641200Y-111127696D01*
X123641200Y-111127696D02*
X123679295Y-111089601D01*
X123679295Y-111089601D02*
X123755485Y-111051505D01*
X123755485Y-111051505D02*
X123984057Y-111051505D01*
X123984057Y-111051505D02*
X124060247Y-111089601D01*
X124060247Y-111089601D02*
X124098342Y-111127696D01*
X124098342Y-111127696D02*
X124136438Y-111203886D01*
X124136438Y-111203886D02*
X124136438Y-111356267D01*
X124136438Y-111356267D02*
X124098342Y-111432458D01*
X123603104Y-111775315D02*
X124403104Y-111775315D01*
X123907866Y-111851505D02*
X123603104Y-112080077D01*
X124136438Y-112080077D02*
X123831676Y-111775315D01*
X123603104Y-112422934D02*
X124136438Y-112422934D01*
X124403104Y-112422934D02*
X124365009Y-112384838D01*
X124365009Y-112384838D02*
X124326914Y-112422934D01*
X124326914Y-112422934D02*
X124365009Y-112461029D01*
X124365009Y-112461029D02*
X124403104Y-112422934D01*
X124403104Y-112422934D02*
X124326914Y-112422934D01*
D12*
%TO.C,REF\u002A\u002A*%
G36*
X120630847Y-113346662D02*
G01*
X120653161Y-113352817D01*
X120685142Y-113362137D01*
X120724310Y-113373856D01*
X120768187Y-113387205D01*
X120814294Y-113401418D01*
X120841692Y-113409967D01*
X120860151Y-113415726D01*
X120903281Y-113429363D01*
X120941203Y-113441560D01*
X120971438Y-113451551D01*
X120991509Y-113458569D01*
X120998201Y-113461310D01*
X121004049Y-113465551D01*
X121007904Y-113472707D01*
X121010027Y-113485397D01*
X121010684Y-113506244D01*
X121010136Y-113537866D01*
X121009104Y-113569891D01*
X121006416Y-113621775D01*
X121001941Y-113660739D01*
X120994888Y-113689193D01*
X120984465Y-113709546D01*
X120969880Y-113724207D01*
X120955522Y-113733027D01*
X120921155Y-113743005D01*
X120886502Y-113739525D01*
X120854163Y-113724217D01*
X120826737Y-113698713D01*
X120806823Y-113664642D01*
X120798388Y-113634481D01*
X120793965Y-113615799D01*
X120787143Y-113608885D01*
X120777360Y-113609549D01*
X120762969Y-113612562D01*
X120737688Y-113617559D01*
X120705727Y-113623715D01*
X120686158Y-113627422D01*
X120611272Y-113641521D01*
X120611272Y-113616507D01*
X120612315Y-113601566D01*
X120618009Y-113592935D01*
X120632204Y-113587295D01*
X120649844Y-113583222D01*
X120678498Y-113577481D01*
X120713792Y-113570963D01*
X120742012Y-113566098D01*
X120795608Y-113557247D01*
X120795608Y-113502051D01*
X120795608Y-113461299D01*
X120841692Y-113461299D01*
X120841735Y-113535361D01*
X120842586Y-113571277D01*
X120844828Y-113604695D01*
X120848051Y-113630366D01*
X120849714Y-113637999D01*
X120864413Y-113667674D01*
X120888235Y-113685199D01*
X120915436Y-113690070D01*
X120932390Y-113687022D01*
X120944253Y-113676641D01*
X120951651Y-113657066D01*
X120955211Y-113626440D01*
X120955559Y-113582904D01*
X120955279Y-113571814D01*
X120953062Y-113496574D01*
X120897377Y-113478937D01*
X120841692Y-113461299D01*
X120795608Y-113461299D01*
X120795608Y-113446855D01*
X120703440Y-113418348D01*
X120665309Y-113406424D01*
X120639478Y-113397648D01*
X120623553Y-113390690D01*
X120615139Y-113384222D01*
X120611844Y-113376912D01*
X120611272Y-113367430D01*
X120611272Y-113367140D01*
X120614053Y-113350837D01*
X120620678Y-113344439D01*
X120630847Y-113346662D01*
G37*
G36*
X121240107Y-110673807D02*
G01*
X121261337Y-110680037D01*
X121293140Y-110689658D01*
X121333481Y-110702050D01*
X121380323Y-110716591D01*
X121421583Y-110729504D01*
X121479152Y-110747584D01*
X121538264Y-110766147D01*
X121560446Y-110773113D01*
X121595298Y-110784057D01*
X121646631Y-110800175D01*
X121688639Y-110813364D01*
X121704178Y-110818242D01*
X121802436Y-110849087D01*
X121800186Y-111154185D01*
X121797936Y-111459282D01*
X121778315Y-111497391D01*
X121749709Y-111537931D01*
X121712722Y-111566036D01*
X121668626Y-111581219D01*
X121618696Y-111582994D01*
X121576162Y-111574654D01*
X121528706Y-111553840D01*
X121489889Y-111521095D01*
X121458732Y-111475528D01*
X121451475Y-111460844D01*
X121429264Y-111412749D01*
X121426827Y-111138813D01*
X121426161Y-111063944D01*
X121556930Y-111063944D01*
X121557139Y-111120964D01*
X121557434Y-111157366D01*
X121558338Y-111232300D01*
X121559489Y-111293022D01*
X121560939Y-111340683D01*
X121562740Y-111376432D01*
X121564947Y-111401419D01*
X121567611Y-111416792D01*
X121569612Y-111422174D01*
X121588662Y-111443876D01*
X121611330Y-111452913D01*
X121634004Y-111449355D01*
X121653072Y-111433274D01*
X121660190Y-111420403D01*
X121663532Y-111409302D01*
X121666165Y-111392712D01*
X121668162Y-111368997D01*
X121669593Y-111336522D01*
X121670530Y-111293651D01*
X121671043Y-111238749D01*
X121671205Y-111170181D01*
X121671205Y-111167539D01*
X121671205Y-110941038D01*
X121618533Y-110925351D01*
X121591869Y-110917621D01*
X121571195Y-110912019D01*
X121560706Y-110909677D01*
X121560446Y-110909665D01*
X121559208Y-110917043D01*
X121558215Y-110937970D01*
X121557489Y-110970636D01*
X121557054Y-111013231D01*
X121556930Y-111063944D01*
X121426161Y-111063944D01*
X121424390Y-110864878D01*
X121325058Y-110833272D01*
X121225726Y-110801666D01*
X121225726Y-110736615D01*
X121226354Y-110707174D01*
X121228029Y-110684682D01*
X121230438Y-110672670D01*
X121231487Y-110671587D01*
X121240107Y-110673807D01*
G37*
G36*
X120620873Y-111334101D02*
G01*
X120630816Y-111337406D01*
X120653095Y-111344553D01*
X120685384Y-111354803D01*
X120725355Y-111367420D01*
X120770684Y-111381665D01*
X120784087Y-111385867D01*
X120830503Y-111400437D01*
X120872217Y-111413586D01*
X120906904Y-111424577D01*
X120932235Y-111432672D01*
X120945885Y-111437133D01*
X120947301Y-111437632D01*
X120952928Y-111435211D01*
X120955987Y-111421326D01*
X120956902Y-111394369D01*
X120957604Y-111367136D01*
X120961134Y-111352779D01*
X120969624Y-111348829D01*
X120985210Y-111352816D01*
X120990965Y-111354954D01*
X121010667Y-111362444D01*
X121010667Y-111473551D01*
X121010183Y-111514247D01*
X121008847Y-111548638D01*
X121006829Y-111574017D01*
X121004302Y-111587680D01*
X121003340Y-111589186D01*
X120990929Y-111590928D01*
X120976804Y-111588894D01*
X120966050Y-111584777D01*
X120959949Y-111576623D01*
X120956848Y-111560461D01*
X120955329Y-111537383D01*
X120953062Y-111490693D01*
X120782167Y-111436954D01*
X120611272Y-111383214D01*
X120611272Y-111356836D01*
X120613447Y-111338262D01*
X120620137Y-111333859D01*
X120620873Y-111334101D01*
G37*
G36*
X120697097Y-111543114D02*
G01*
X120708427Y-111543689D01*
X120736164Y-111550743D01*
X120771627Y-111560999D01*
X120811435Y-111573337D01*
X120852208Y-111586636D01*
X120890566Y-111599778D01*
X120923129Y-111611641D01*
X120946516Y-111621107D01*
X120955221Y-111625457D01*
X120983526Y-111651511D01*
X121002267Y-111688129D01*
X121010403Y-111733097D01*
X121010667Y-111743471D01*
X121005966Y-111789140D01*
X120991881Y-111822679D01*
X120968445Y-111844057D01*
X120935687Y-111853241D01*
X120908771Y-111852584D01*
X120878269Y-111847108D01*
X120840085Y-111837401D01*
X120797661Y-111824660D01*
X120754442Y-111810080D01*
X120713869Y-111794860D01*
X120679388Y-111780195D01*
X120654441Y-111767283D01*
X120645852Y-111761204D01*
X120622425Y-111731082D01*
X120608014Y-111691875D01*
X120604329Y-111655283D01*
X120654018Y-111655283D01*
X120658074Y-111687326D01*
X120666704Y-111711098D01*
X120677988Y-111722782D01*
X120697611Y-111735283D01*
X120706017Y-111739348D01*
X120723794Y-111746243D01*
X120751043Y-111755724D01*
X120784410Y-111766744D01*
X120820541Y-111778255D01*
X120856083Y-111789208D01*
X120887682Y-111798555D01*
X120911985Y-111805248D01*
X120925637Y-111808239D01*
X120926626Y-111808304D01*
X120941936Y-111801420D01*
X120955138Y-111783913D01*
X120963301Y-111760497D01*
X120964583Y-111747220D01*
X120963174Y-111721769D01*
X120957757Y-111701194D01*
X120946546Y-111684122D01*
X120927756Y-111669183D01*
X120899603Y-111655007D01*
X120860299Y-111640223D01*
X120808061Y-111623460D01*
X120800271Y-111621078D01*
X120754361Y-111607519D01*
X120720709Y-111598805D01*
X120697097Y-111594632D01*
X120681309Y-111594697D01*
X120671129Y-111598698D01*
X120666804Y-111602846D01*
X120656929Y-111625160D01*
X120654018Y-111655283D01*
X120604329Y-111655283D01*
X120603552Y-111647562D01*
X120609194Y-111605086D01*
X120624194Y-111574357D01*
X120649246Y-111552674D01*
X120680716Y-111542283D01*
X120697097Y-111543114D01*
G37*
G36*
X120693148Y-113055453D02*
G01*
X120706838Y-113056384D01*
X120725047Y-113060397D01*
X120754241Y-113068306D01*
X120790855Y-113079087D01*
X120831323Y-113091712D01*
X120845090Y-113096165D01*
X120901238Y-113115855D01*
X120943839Y-113134679D01*
X120974480Y-113154423D01*
X120994745Y-113176873D01*
X121006218Y-113203814D01*
X121010485Y-113237034D01*
X121009131Y-113278318D01*
X121008930Y-113280800D01*
X121005275Y-113308232D01*
X120998161Y-113326597D01*
X120984888Y-113342171D01*
X120981004Y-113345730D01*
X120965304Y-113357566D01*
X120948401Y-113364486D01*
X120927685Y-113366404D01*
X120900547Y-113363238D01*
X120864379Y-113354903D01*
X120816570Y-113341316D01*
X120813336Y-113340350D01*
X120765586Y-113325912D01*
X120729981Y-113314664D01*
X120703885Y-113305611D01*
X120684663Y-113297762D01*
X120669680Y-113290121D01*
X120656298Y-113281696D01*
X120654541Y-113280493D01*
X120630019Y-113254896D01*
X120613260Y-113219463D01*
X120605184Y-113178108D01*
X120605708Y-113163214D01*
X120653830Y-113163214D01*
X120656904Y-113191282D01*
X120663336Y-113216569D01*
X120666275Y-113223389D01*
X120677957Y-113236567D01*
X120694067Y-113247519D01*
X120713438Y-113255788D01*
X120742863Y-113266342D01*
X120778632Y-113278064D01*
X120817037Y-113289840D01*
X120854366Y-113300554D01*
X120886912Y-113309090D01*
X120910963Y-113314333D01*
X120919950Y-113315440D01*
X120944054Y-113310179D01*
X120958895Y-113292718D01*
X120964524Y-113262993D01*
X120964583Y-113258845D01*
X120963099Y-113233767D01*
X120957455Y-113213428D01*
X120945861Y-113196447D01*
X120926527Y-113181446D01*
X120897665Y-113167044D01*
X120857484Y-113151863D01*
X120804196Y-113134521D01*
X120802736Y-113134066D01*
X120754566Y-113119638D01*
X120718718Y-113110743D01*
X120693148Y-113107475D01*
X120675809Y-113109929D01*
X120664657Y-113118199D01*
X120657648Y-113132381D01*
X120655255Y-113140901D01*
X120653830Y-113163214D01*
X120605708Y-113163214D01*
X120606710Y-113134747D01*
X120613625Y-113106338D01*
X120630302Y-113079524D01*
X120657052Y-113061892D01*
X120690463Y-113055271D01*
X120693148Y-113055453D01*
G37*
G36*
X121689858Y-112255831D02*
G01*
X121710971Y-112261251D01*
X121738445Y-112268962D01*
X121744334Y-112270683D01*
X121801777Y-112287583D01*
X121801777Y-112554501D01*
X121801777Y-112821418D01*
X121765294Y-112810218D01*
X121736473Y-112801368D01*
X121708152Y-112792669D01*
X121700223Y-112790232D01*
X121671635Y-112781447D01*
X121669500Y-112681220D01*
X121667365Y-112580994D01*
X121446545Y-112512067D01*
X121225726Y-112443140D01*
X121225726Y-112375344D01*
X121226001Y-112345222D01*
X121226735Y-112321976D01*
X121227796Y-112309064D01*
X121228347Y-112307548D01*
X121236054Y-112309753D01*
X121256591Y-112315992D01*
X121288130Y-112325701D01*
X121328846Y-112338313D01*
X121376910Y-112353264D01*
X121430496Y-112369990D01*
X121449167Y-112375829D01*
X121667365Y-112444111D01*
X121669515Y-112348947D01*
X121670994Y-112309394D01*
X121673323Y-112278916D01*
X121676279Y-112259684D01*
X121679277Y-112253783D01*
X121689858Y-112255831D01*
G37*
G36*
X120620873Y-112670416D02*
G01*
X120630623Y-112673585D01*
X120652927Y-112680622D01*
X120685660Y-112690865D01*
X120726699Y-112703649D01*
X120773919Y-112718311D01*
X120810969Y-112729788D01*
X120848680Y-112741609D01*
X120861452Y-112745612D01*
X120907345Y-112760383D01*
X120946507Y-112773381D01*
X120976796Y-112783885D01*
X120996069Y-112791174D01*
X121001923Y-112794027D01*
X121006982Y-112805988D01*
X121009936Y-112829674D01*
X121010941Y-112861613D01*
X121010152Y-112898337D01*
X121007721Y-112936375D01*
X121003805Y-112972258D01*
X120998557Y-113002514D01*
X120992133Y-113023675D01*
X120991648Y-113024716D01*
X120971338Y-113051607D01*
X120943868Y-113067354D01*
X120912275Y-113072298D01*
X120879599Y-113066780D01*
X120848881Y-113051141D01*
X120823159Y-113025723D01*
X120810692Y-113004411D01*
X120804174Y-112987156D01*
X120799818Y-112967157D01*
X120797230Y-112940979D01*
X120796016Y-112905189D01*
X120795777Y-112874167D01*
X120795755Y-112861655D01*
X120841735Y-112861655D01*
X120842622Y-112897217D01*
X120844954Y-112930385D01*
X120848297Y-112955739D01*
X120849790Y-112962376D01*
X120863957Y-112993471D01*
X120885089Y-113014064D01*
X120910768Y-113021839D01*
X120911831Y-113021851D01*
X120929736Y-113018954D01*
X120942430Y-113008971D01*
X120950675Y-112989962D01*
X120955229Y-112959990D01*
X120956852Y-112917115D01*
X120956892Y-112906852D01*
X120956881Y-112825994D01*
X120912414Y-112812928D01*
X120886184Y-112805031D01*
X120864574Y-112798190D01*
X120854820Y-112794825D01*
X120848680Y-112793891D01*
X120844812Y-112798541D01*
X120842707Y-112811375D01*
X120841856Y-112834994D01*
X120841735Y-112861655D01*
X120795755Y-112861655D01*
X120795608Y-112776407D01*
X120703440Y-112747930D01*
X120611272Y-112719453D01*
X120611272Y-112693175D01*
X120613498Y-112674574D01*
X120620308Y-112670231D01*
X120620873Y-112670416D01*
G37*
G36*
X120633058Y-113776806D02*
G01*
X120655784Y-113783092D01*
X120688486Y-113792728D01*
X120728844Y-113805025D01*
X120774538Y-113819296D01*
X120790900Y-113824482D01*
X120837378Y-113839205D01*
X120878814Y-113852207D01*
X120913011Y-113862810D01*
X120937771Y-113870335D01*
X120950898Y-113874101D01*
X120952359Y-113874406D01*
X120954756Y-113867427D01*
X120956402Y-113849286D01*
X120956902Y-113828322D01*
X120957625Y-113801369D01*
X120961250Y-113787288D01*
X120969958Y-113783606D01*
X120985931Y-113787852D01*
X120990965Y-113789728D01*
X121010667Y-113797219D01*
X121010667Y-113912619D01*
X121010582Y-113957970D01*
X121009875Y-113990021D01*
X121007866Y-114010832D01*
X121003873Y-114022466D01*
X120997217Y-114026984D01*
X120987218Y-114026446D01*
X120974184Y-114023179D01*
X120964384Y-114018874D01*
X120959181Y-114010015D01*
X120957167Y-113992577D01*
X120956902Y-113973749D01*
X120956902Y-113928951D01*
X120820570Y-113885858D01*
X120774473Y-113871279D01*
X120730827Y-113857460D01*
X120692791Y-113845404D01*
X120663523Y-113836111D01*
X120647755Y-113831085D01*
X120625777Y-113823024D01*
X120614948Y-113814919D01*
X120611462Y-113803215D01*
X120611272Y-113796982D01*
X120614746Y-113779223D01*
X120622628Y-113774557D01*
X120633058Y-113776806D01*
G37*
G36*
X120332312Y-106150136D02*
G01*
X120354688Y-106157161D01*
X120387495Y-106168041D01*
X120428723Y-106182099D01*
X120476362Y-106198660D01*
X120527632Y-106216771D01*
X120579089Y-106235056D01*
X120625597Y-106251527D01*
X120665256Y-106265514D01*
X120696168Y-106276350D01*
X120716434Y-106283367D01*
X120724154Y-106285896D01*
X120724163Y-106285897D01*
X120724386Y-106293460D01*
X120724603Y-106315681D01*
X120724813Y-106351855D01*
X120725016Y-106401279D01*
X120725209Y-106463249D01*
X120725393Y-106537061D01*
X120725566Y-106622011D01*
X120725727Y-106717394D01*
X120725875Y-106822508D01*
X120726010Y-106936648D01*
X120726130Y-107059111D01*
X120726234Y-107189192D01*
X120726321Y-107326188D01*
X120726390Y-107469394D01*
X120726441Y-107618107D01*
X120726472Y-107771624D01*
X120726482Y-107925046D01*
X120726470Y-108116179D01*
X120726448Y-108292576D01*
X120726433Y-108454863D01*
X120726445Y-108603663D01*
X120726502Y-108739602D01*
X120726623Y-108863306D01*
X120726828Y-108975400D01*
X120727134Y-109076508D01*
X120727561Y-109167257D01*
X120728127Y-109248270D01*
X120728851Y-109320174D01*
X120729753Y-109383592D01*
X120730850Y-109439152D01*
X120732161Y-109487477D01*
X120733706Y-109529193D01*
X120735503Y-109564924D01*
X120737571Y-109595297D01*
X120739928Y-109620937D01*
X120742594Y-109642467D01*
X120745588Y-109660514D01*
X120748927Y-109675703D01*
X120752631Y-109688659D01*
X120756719Y-109700007D01*
X120761209Y-109710372D01*
X120766120Y-109720379D01*
X120771472Y-109730654D01*
X120777282Y-109741822D01*
X120781327Y-109749882D01*
X120805912Y-109794450D01*
X120833931Y-109832857D01*
X120867874Y-109869569D01*
X120924931Y-109918406D01*
X120987477Y-109955710D01*
X121057178Y-109982085D01*
X121135698Y-109998133D01*
X121224704Y-110004457D01*
X121241087Y-110004609D01*
X121338733Y-109998606D01*
X121427188Y-109980418D01*
X121506321Y-109950128D01*
X121576004Y-109907823D01*
X121636107Y-109853586D01*
X121686499Y-109787503D01*
X121727051Y-109709658D01*
X121738955Y-109679486D01*
X121759533Y-109623151D01*
X121761549Y-108142701D01*
X121761796Y-107965277D01*
X121762037Y-107802579D01*
X121762278Y-107653972D01*
X121762527Y-107518821D01*
X121762790Y-107396491D01*
X121763073Y-107286346D01*
X121763383Y-107187751D01*
X121763727Y-107100071D01*
X121764112Y-107022670D01*
X121764542Y-106954914D01*
X121765027Y-106896167D01*
X121765571Y-106845795D01*
X121766182Y-106803161D01*
X121766867Y-106767631D01*
X121767631Y-106738569D01*
X121768481Y-106715340D01*
X121769425Y-106697310D01*
X121770468Y-106683842D01*
X121771617Y-106674302D01*
X121772879Y-106668054D01*
X121774260Y-106664464D01*
X121775767Y-106662895D01*
X121776911Y-106662660D01*
X121788698Y-106665290D01*
X121811911Y-106672228D01*
X121843547Y-106682519D01*
X121880602Y-106695206D01*
X121893945Y-106699912D01*
X121997634Y-106736753D01*
X121999752Y-108118507D01*
X122000000Y-108309701D01*
X122000137Y-108488527D01*
X122000167Y-108654745D01*
X122000088Y-108808116D01*
X121999903Y-108948402D01*
X121999611Y-109075364D01*
X121999215Y-109188764D01*
X121998715Y-109288362D01*
X121998111Y-109373921D01*
X121997406Y-109445200D01*
X121996599Y-109501962D01*
X121995691Y-109543968D01*
X121994685Y-109570979D01*
X121994107Y-109579176D01*
X121979619Y-109678414D01*
X121956196Y-109767159D01*
X121922802Y-109848095D01*
X121878400Y-109923904D01*
X121841780Y-109973411D01*
X121770999Y-110049660D01*
X121689627Y-110115808D01*
X121599649Y-110170570D01*
X121503055Y-110212662D01*
X121442887Y-110231265D01*
X121408998Y-110239546D01*
X121378297Y-110245257D01*
X121346309Y-110248885D01*
X121308560Y-110250915D01*
X121260575Y-110251831D01*
X121252608Y-110251899D01*
X121167067Y-110249806D01*
X121091677Y-110241499D01*
X121022167Y-110226057D01*
X120954269Y-110202560D01*
X120891617Y-110174068D01*
X120839698Y-110146256D01*
X120795653Y-110117715D01*
X120753567Y-110084261D01*
X120716025Y-110049900D01*
X120653024Y-109981812D01*
X120601444Y-109908185D01*
X120559779Y-109826426D01*
X120526526Y-109733941D01*
X120520326Y-109712392D01*
X120499902Y-109638512D01*
X120496062Y-108045567D01*
X120492221Y-106452622D01*
X120403894Y-106420969D01*
X120315566Y-106389316D01*
X120313451Y-106268480D01*
X120312841Y-106222011D01*
X120312996Y-106188834D01*
X120314068Y-106166890D01*
X120316209Y-106154123D01*
X120319571Y-106148474D01*
X120322378Y-106147645D01*
X120332312Y-106150136D01*
G37*
G36*
X120637577Y-112194168D02*
G01*
X120665037Y-112202596D01*
X120665037Y-112374504D01*
X120665264Y-112436810D01*
X120666202Y-112485595D01*
X120668236Y-112522697D01*
X120671752Y-112549952D01*
X120677135Y-112569197D01*
X120684770Y-112582270D01*
X120695043Y-112591008D01*
X120708338Y-112597247D01*
X120712033Y-112598581D01*
X120737012Y-112605656D01*
X120754255Y-112604762D01*
X120769686Y-112594951D01*
X120776755Y-112588242D01*
X120784402Y-112579854D01*
X120789647Y-112570752D01*
X120792950Y-112558025D01*
X120794768Y-112538766D01*
X120795556Y-112510068D01*
X120795774Y-112469021D01*
X120795777Y-112467271D01*
X120797031Y-112411065D01*
X120801028Y-112368013D01*
X120808435Y-112336048D01*
X120819918Y-112313106D01*
X120836146Y-112297118D01*
X120853763Y-112287622D01*
X120890821Y-112279782D01*
X120927098Y-112285770D01*
X120959387Y-112304245D01*
X120984478Y-112333865D01*
X120990055Y-112344576D01*
X120995436Y-112357488D01*
X120999575Y-112371204D01*
X121002679Y-112388004D01*
X121004957Y-112410169D01*
X121006618Y-112439981D01*
X121007869Y-112479720D01*
X121008920Y-112531666D01*
X121009313Y-112555250D01*
X121010022Y-112620736D01*
X121009792Y-112670903D01*
X121008623Y-112705763D01*
X121006515Y-112725331D01*
X121004216Y-112729985D01*
X120991548Y-112727441D01*
X120977015Y-112722651D01*
X120957724Y-112715316D01*
X120955393Y-112542757D01*
X120954597Y-112486988D01*
X120953761Y-112444489D01*
X120952658Y-112413172D01*
X120951061Y-112390946D01*
X120948742Y-112375723D01*
X120945472Y-112365413D01*
X120941026Y-112357927D01*
X120935174Y-112351175D01*
X120934442Y-112350394D01*
X120912098Y-112334870D01*
X120888177Y-112331235D01*
X120867162Y-112339887D01*
X120862875Y-112344031D01*
X120857698Y-112353476D01*
X120853842Y-112369952D01*
X120851026Y-112395737D01*
X120848967Y-112433109D01*
X120847892Y-112465002D01*
X120845290Y-112520795D01*
X120840652Y-112563421D01*
X120833342Y-112595009D01*
X120822722Y-112617689D01*
X120808154Y-112633592D01*
X120794954Y-112641996D01*
X120759510Y-112652604D01*
X120720616Y-112651896D01*
X120682749Y-112641064D01*
X120650389Y-112621298D01*
X120630474Y-112598224D01*
X120625693Y-112589170D01*
X120621966Y-112578596D01*
X120619126Y-112564489D01*
X120617010Y-112544835D01*
X120615454Y-112517621D01*
X120614294Y-112480833D01*
X120613365Y-112432457D01*
X120612615Y-112379136D01*
X120610118Y-112185741D01*
X120637577Y-112194168D01*
G37*
G36*
X120925378Y-106358046D02*
G01*
X120946107Y-106364977D01*
X120976003Y-106375320D01*
X121012428Y-106388167D01*
X121033709Y-106395763D01*
X121145079Y-106435682D01*
X121148919Y-107984447D01*
X121149372Y-108165867D01*
X121149798Y-108332556D01*
X121150204Y-108485145D01*
X121150599Y-108624266D01*
X121150989Y-108750547D01*
X121151382Y-108864622D01*
X121151785Y-108967119D01*
X121152206Y-109058670D01*
X121152653Y-109139905D01*
X121153133Y-109211455D01*
X121153652Y-109273952D01*
X121154220Y-109328025D01*
X121154842Y-109374305D01*
X121155527Y-109413424D01*
X121156282Y-109446011D01*
X121157115Y-109472697D01*
X121158033Y-109494114D01*
X121159043Y-109510892D01*
X121160153Y-109523661D01*
X121161371Y-109533053D01*
X121162703Y-109539698D01*
X121164157Y-109544227D01*
X121165742Y-109547270D01*
X121167420Y-109549411D01*
X121192876Y-109567085D01*
X121226308Y-109576042D01*
X121262795Y-109575907D01*
X121297414Y-109566305D01*
X121308935Y-109560172D01*
X121313800Y-109557384D01*
X121318251Y-109554914D01*
X121322307Y-109552100D01*
X121325986Y-109548277D01*
X121329306Y-109542783D01*
X121332285Y-109534954D01*
X121334942Y-109524127D01*
X121337296Y-109509639D01*
X121339364Y-109490827D01*
X121341165Y-109467027D01*
X121342718Y-109437577D01*
X121344040Y-109401812D01*
X121345150Y-109359070D01*
X121346066Y-109308687D01*
X121346807Y-109250000D01*
X121347392Y-109182346D01*
X121347837Y-109105061D01*
X121348163Y-109017483D01*
X121348387Y-108918948D01*
X121348527Y-108808793D01*
X121348602Y-108686355D01*
X121348630Y-108550969D01*
X121348630Y-108401974D01*
X121348620Y-108238706D01*
X121348617Y-108126301D01*
X121348617Y-106755689D01*
X121315974Y-106743512D01*
X121287088Y-106733010D01*
X121257585Y-106722679D01*
X121252608Y-106720990D01*
X121221886Y-106710645D01*
X121219772Y-106586020D01*
X121219090Y-106539707D01*
X121218995Y-106506652D01*
X121219690Y-106484758D01*
X121221374Y-106471928D01*
X121224249Y-106466063D01*
X121228516Y-106465065D01*
X121231293Y-106465755D01*
X121241724Y-106469351D01*
X121264731Y-106477445D01*
X121298422Y-106489367D01*
X121340909Y-106504447D01*
X121390301Y-106522013D01*
X121444707Y-106541396D01*
X121467667Y-106549585D01*
X121690407Y-106629054D01*
X121692522Y-106754078D01*
X121693207Y-106800446D01*
X121693314Y-106833533D01*
X121692641Y-106855412D01*
X121690989Y-106868158D01*
X121688158Y-106873845D01*
X121683948Y-106874550D01*
X121681001Y-106873576D01*
X121665756Y-106867775D01*
X121643862Y-106859859D01*
X121619959Y-106851450D01*
X121598687Y-106844169D01*
X121584687Y-106839638D01*
X121581779Y-106838906D01*
X121581501Y-106846458D01*
X121581210Y-106868600D01*
X121580907Y-106904561D01*
X121580595Y-106953571D01*
X121580278Y-107014856D01*
X121579956Y-107087648D01*
X121579634Y-107171173D01*
X121579314Y-107264662D01*
X121578997Y-107367343D01*
X121578687Y-107478445D01*
X121578387Y-107597196D01*
X121578098Y-107722826D01*
X121577824Y-107854563D01*
X121577567Y-107991636D01*
X121577330Y-108133275D01*
X121577221Y-108204546D01*
X121575197Y-109570187D01*
X121546324Y-109628606D01*
X121514930Y-109679718D01*
X121474800Y-109726201D01*
X121429814Y-109763968D01*
X121401601Y-109781003D01*
X121340733Y-109804569D01*
X121275863Y-109816413D01*
X121209861Y-109816886D01*
X121145599Y-109806338D01*
X121085945Y-109785119D01*
X121033769Y-109753581D01*
X121010562Y-109733234D01*
X120975716Y-109691174D01*
X120947425Y-109640218D01*
X120932225Y-109602634D01*
X120914659Y-109554025D01*
X120912615Y-107954524D01*
X120912444Y-107798954D01*
X120912332Y-107647515D01*
X120912277Y-107500917D01*
X120912279Y-107359873D01*
X120912334Y-107225097D01*
X120912442Y-107097299D01*
X120912600Y-106977192D01*
X120912807Y-106865489D01*
X120913062Y-106762903D01*
X120913362Y-106670144D01*
X120913705Y-106587926D01*
X120914091Y-106516961D01*
X120914517Y-106457961D01*
X120914982Y-106411638D01*
X120915483Y-106378706D01*
X120916020Y-106359875D01*
X120916455Y-106355434D01*
X120925378Y-106358046D01*
G37*
G36*
X120737252Y-111000765D02*
G01*
X120788491Y-111013875D01*
X120824114Y-111024798D01*
X120877171Y-111042469D01*
X120917502Y-111057823D01*
X120947334Y-111072064D01*
X120968893Y-111086399D01*
X120984404Y-111102034D01*
X120994400Y-111117074D01*
X121005985Y-111147945D01*
X121010646Y-111183732D01*
X121008867Y-111220370D01*
X121001134Y-111253796D01*
X120987930Y-111279947D01*
X120973419Y-111293080D01*
X120952493Y-111299712D01*
X120924111Y-111300476D01*
X120886663Y-111295151D01*
X120838540Y-111283513D01*
X120781914Y-111266548D01*
X120726752Y-111247841D01*
X120684781Y-111230674D01*
X120654082Y-111213811D01*
X120632738Y-111196016D01*
X120618831Y-111176053D01*
X120611501Y-111156735D01*
X120605259Y-111120303D01*
X120605215Y-111109650D01*
X120653632Y-111109650D01*
X120660034Y-111139583D01*
X120671990Y-111163127D01*
X120681701Y-111172830D01*
X120698690Y-111182857D01*
X120725166Y-111194225D01*
X120763334Y-111207952D01*
X120784576Y-111215059D01*
X120835489Y-111231588D01*
X120873983Y-111243265D01*
X120902120Y-111250354D01*
X120921966Y-111253124D01*
X120935584Y-111251839D01*
X120945038Y-111246765D01*
X120952392Y-111238169D01*
X120953301Y-111236806D01*
X120962584Y-111210384D01*
X120962517Y-111178639D01*
X120953820Y-111147851D01*
X120940821Y-111127797D01*
X120925524Y-111117205D01*
X120899139Y-111104559D01*
X120864940Y-111090905D01*
X120826203Y-111077288D01*
X120786205Y-111064751D01*
X120748222Y-111054342D01*
X120715530Y-111047103D01*
X120691405Y-111044080D01*
X120681348Y-111045040D01*
X120664610Y-111058333D01*
X120655264Y-111081218D01*
X120653632Y-111109650D01*
X120605215Y-111109650D01*
X120605105Y-111082759D01*
X120610990Y-111051258D01*
X120612220Y-111047921D01*
X120625387Y-111022846D01*
X120642779Y-111005777D01*
X120666091Y-110996531D01*
X120691405Y-110995214D01*
X120697017Y-110994922D01*
X120737252Y-111000765D01*
G37*
G36*
X120625510Y-110481758D02*
G01*
X120646937Y-110487988D01*
X120679007Y-110497629D01*
X120719718Y-110510074D01*
X120767067Y-110524716D01*
X120814992Y-110539674D01*
X121006827Y-110599801D01*
X121006827Y-110656615D01*
X121006827Y-110713429D01*
X120849373Y-110711151D01*
X120691919Y-110708873D01*
X120838890Y-110799916D01*
X120882077Y-110826781D01*
X120921366Y-110851435D01*
X120954695Y-110872566D01*
X120980003Y-110888864D01*
X120995229Y-110899018D01*
X120998264Y-110901252D01*
X121005287Y-110911591D01*
X121009212Y-110930174D01*
X121010631Y-110960193D01*
X121010667Y-110967757D01*
X121009894Y-110995580D01*
X121007854Y-111016835D01*
X121004969Y-111027378D01*
X121004585Y-111027727D01*
X120995938Y-111026457D01*
X120974679Y-111020958D01*
X120942782Y-111011809D01*
X120902224Y-110999595D01*
X120854981Y-110984896D01*
X120804888Y-110968896D01*
X120611272Y-110906307D01*
X120611272Y-110881103D01*
X120612313Y-110864002D01*
X120614853Y-110855984D01*
X120615172Y-110855900D01*
X120623284Y-110858191D01*
X120643859Y-110864612D01*
X120674771Y-110874480D01*
X120713894Y-110887115D01*
X120759103Y-110901836D01*
X120783015Y-110909665D01*
X120830520Y-110925174D01*
X120873063Y-110938931D01*
X120908502Y-110950254D01*
X120934691Y-110958459D01*
X120949487Y-110962864D01*
X120951929Y-110963429D01*
X120955797Y-110956904D01*
X120956856Y-110946148D01*
X120954823Y-110939525D01*
X120947847Y-110931075D01*
X120934562Y-110919823D01*
X120913600Y-110904794D01*
X120883597Y-110885014D01*
X120843184Y-110859507D01*
X120790997Y-110827298D01*
X120785961Y-110824211D01*
X120615112Y-110719556D01*
X120612838Y-110689799D01*
X120610564Y-110660043D01*
X120728048Y-110662065D01*
X120774545Y-110662924D01*
X120820788Y-110663882D01*
X120862196Y-110664836D01*
X120894191Y-110665687D01*
X120901235Y-110665905D01*
X120930011Y-110666509D01*
X120946703Y-110665432D01*
X120954561Y-110661854D01*
X120956839Y-110654956D01*
X120956920Y-110651878D01*
X120955452Y-110646325D01*
X120949924Y-110640706D01*
X120938636Y-110634328D01*
X120919885Y-110626501D01*
X120891970Y-110616532D01*
X120853189Y-110603731D01*
X120801840Y-110587405D01*
X120786007Y-110582431D01*
X120615112Y-110528828D01*
X120612705Y-110504188D01*
X120612800Y-110487394D01*
X120616265Y-110479612D01*
X120616728Y-110479547D01*
X120625510Y-110481758D01*
G37*
G36*
X121429584Y-111576057D02*
G01*
X121451373Y-111578721D01*
X121477713Y-111583931D01*
X121510887Y-111592228D01*
X121553177Y-111604150D01*
X121606867Y-111620239D01*
X121630882Y-111627603D01*
X121801777Y-111680240D01*
X121801777Y-111748112D01*
X121801342Y-111778251D01*
X121800177Y-111801518D01*
X121798496Y-111814455D01*
X121797619Y-111815984D01*
X121789413Y-111813827D01*
X121768601Y-111807769D01*
X121737255Y-111798430D01*
X121697451Y-111786432D01*
X121651261Y-111772394D01*
X121617977Y-111762220D01*
X121567128Y-111746977D01*
X121519770Y-111733413D01*
X121478332Y-111722172D01*
X121445242Y-111713901D01*
X121422929Y-111709245D01*
X121415793Y-111708455D01*
X121384319Y-111715161D01*
X121359824Y-111734045D01*
X121343026Y-111763259D01*
X121334642Y-111800954D01*
X121335389Y-111845281D01*
X121344950Y-111890980D01*
X121365747Y-111934781D01*
X121399103Y-111970763D01*
X121432072Y-111991845D01*
X121447392Y-111998097D01*
X121474918Y-112007906D01*
X121512135Y-112020433D01*
X121556527Y-112034841D01*
X121605581Y-112050291D01*
X121630882Y-112058088D01*
X121801777Y-112110358D01*
X121801777Y-112178230D01*
X121801467Y-112208370D01*
X121800637Y-112231637D01*
X121799439Y-112244573D01*
X121798814Y-112246102D01*
X121787013Y-112243752D01*
X121762988Y-112237201D01*
X121729055Y-112227197D01*
X121687534Y-112214488D01*
X121640741Y-112199821D01*
X121590995Y-112183945D01*
X121540612Y-112167608D01*
X121491912Y-112151557D01*
X121447211Y-112136541D01*
X121408828Y-112123308D01*
X121379079Y-112112606D01*
X121360284Y-112105182D01*
X121356406Y-112103327D01*
X121307026Y-112067983D01*
X121265746Y-112021140D01*
X121234190Y-111965232D01*
X121213981Y-111902690D01*
X121210701Y-111885111D01*
X121205410Y-111845322D01*
X121204082Y-111812437D01*
X121206750Y-111778510D01*
X121211236Y-111748525D01*
X121227272Y-111692039D01*
X121254357Y-111645774D01*
X121291596Y-111610510D01*
X121338091Y-111587027D01*
X121392948Y-111576105D01*
X121410062Y-111575401D01*
X121429584Y-111576057D01*
G37*
G36*
X120630644Y-111838073D02*
G01*
X120652935Y-111845052D01*
X120685598Y-111855252D01*
X120726485Y-111868003D01*
X120773447Y-111882633D01*
X120807129Y-111893118D01*
X120841692Y-111903963D01*
X120857314Y-111908865D01*
X120903162Y-111923496D01*
X120942447Y-111936280D01*
X120972942Y-111946488D01*
X120992421Y-111953389D01*
X120998111Y-111955750D01*
X121004020Y-111960131D01*
X121007873Y-111967548D01*
X121009949Y-111980678D01*
X121010529Y-112002198D01*
X121009890Y-112034785D01*
X121009045Y-112060590D01*
X121006113Y-112114328D01*
X121001104Y-112155005D01*
X120993309Y-112184861D01*
X120982019Y-112206137D01*
X120966523Y-112221070D01*
X120956257Y-112227234D01*
X120921513Y-112237426D01*
X120886615Y-112234102D01*
X120854137Y-112218866D01*
X120826653Y-112193319D01*
X120806737Y-112159062D01*
X120798372Y-112128972D01*
X120794874Y-112110524D01*
X120792091Y-112100677D01*
X120791632Y-112100170D01*
X120783752Y-112101616D01*
X120764142Y-112105512D01*
X120736114Y-112111195D01*
X120714961Y-112115531D01*
X120673727Y-112123838D01*
X120645181Y-112128744D01*
X120626994Y-112130077D01*
X120616837Y-112127664D01*
X120612379Y-112121333D01*
X120611290Y-112110911D01*
X120611272Y-112107850D01*
X120612952Y-112091431D01*
X120616996Y-112084150D01*
X120617032Y-112084145D01*
X120626479Y-112082472D01*
X120647702Y-112078441D01*
X120677408Y-112072684D01*
X120707280Y-112066825D01*
X120791768Y-112050167D01*
X120792524Y-112031779D01*
X120841692Y-112031779D01*
X120843334Y-112082185D01*
X120848402Y-112119390D01*
X120854137Y-112138642D01*
X120869431Y-112166223D01*
X120889389Y-112180797D01*
X120913977Y-112184657D01*
X120931683Y-112181250D01*
X120944036Y-112169849D01*
X120951667Y-112148686D01*
X120955206Y-112115991D01*
X120955287Y-112069996D01*
X120955261Y-112069046D01*
X120953062Y-111989994D01*
X120897377Y-111973006D01*
X120841692Y-111956019D01*
X120841692Y-112031779D01*
X120792524Y-112031779D01*
X120793995Y-111995968D01*
X120796223Y-111941769D01*
X120703747Y-111912407D01*
X120611272Y-111883045D01*
X120611272Y-111857436D01*
X120613704Y-111838961D01*
X120620873Y-111834984D01*
X120630644Y-111838073D01*
G37*
D13*
X125000000Y-114375000D02*
X120000000Y-114375000D01*
X120000000Y-97000000D01*
X125000000Y-97000000D01*
X125000000Y-114375000D01*
%TD*%
%LPC*%
G36*
X117517714Y-112332295D02*
G01*
X117653548Y-112388559D01*
X117775795Y-112470242D01*
X117879758Y-112574205D01*
X117961441Y-112696452D01*
X118017705Y-112832286D01*
X118046389Y-112976487D01*
X118046389Y-113123513D01*
X118017705Y-113267714D01*
X117961441Y-113403548D01*
X117879758Y-113525795D01*
X117775795Y-113629758D01*
X117653548Y-113711441D01*
X117517714Y-113767705D01*
X117373513Y-113796389D01*
X117226487Y-113796389D01*
X117082286Y-113767705D01*
X116946452Y-113711441D01*
X116824205Y-113629758D01*
X116720242Y-113525795D01*
X116638559Y-113403548D01*
X116582295Y-113267714D01*
X116553611Y-113123513D01*
X116553611Y-112976487D01*
X116582295Y-112832286D01*
X116638559Y-112696452D01*
X116720242Y-112574205D01*
X116824205Y-112470242D01*
X116946452Y-112388559D01*
X117082286Y-112332295D01*
X117226487Y-112303611D01*
X117373513Y-112303611D01*
X117517714Y-112332295D01*
G37*
G36*
X132417714Y-112282295D02*
G01*
X132553548Y-112338559D01*
X132675795Y-112420242D01*
X132779758Y-112524205D01*
X132861441Y-112646452D01*
X132917705Y-112782286D01*
X132946389Y-112926487D01*
X132946389Y-113073513D01*
X132917705Y-113217714D01*
X132861441Y-113353548D01*
X132779758Y-113475795D01*
X132675795Y-113579758D01*
X132553548Y-113661441D01*
X132417714Y-113717705D01*
X132273513Y-113746389D01*
X132126487Y-113746389D01*
X131982286Y-113717705D01*
X131846452Y-113661441D01*
X131724205Y-113579758D01*
X131620242Y-113475795D01*
X131538559Y-113353548D01*
X131482295Y-113217714D01*
X131453611Y-113073513D01*
X131453611Y-112926487D01*
X131482295Y-112782286D01*
X131538559Y-112646452D01*
X131620242Y-112524205D01*
X131724205Y-112420242D01*
X131846452Y-112338559D01*
X131982286Y-112282295D01*
X132126487Y-112253611D01*
X132273513Y-112253611D01*
X132417714Y-112282295D01*
G37*
G36*
X117517714Y-109832295D02*
G01*
X117653548Y-109888559D01*
X117775795Y-109970242D01*
X117879758Y-110074205D01*
X117961441Y-110196452D01*
X118017705Y-110332286D01*
X118046389Y-110476487D01*
X118046389Y-110623513D01*
X118017705Y-110767714D01*
X117961441Y-110903548D01*
X117879758Y-111025795D01*
X117775795Y-111129758D01*
X117653548Y-111211441D01*
X117517714Y-111267705D01*
X117373513Y-111296389D01*
X117226487Y-111296389D01*
X117082286Y-111267705D01*
X116946452Y-111211441D01*
X116824205Y-111129758D01*
X116720242Y-111025795D01*
X116638559Y-110903548D01*
X116582295Y-110767714D01*
X116553611Y-110623513D01*
X116553611Y-110476487D01*
X116582295Y-110332286D01*
X116638559Y-110196452D01*
X116720242Y-110074205D01*
X116824205Y-109970242D01*
X116946452Y-109888559D01*
X117082286Y-109832295D01*
X117226487Y-109803611D01*
X117373513Y-109803611D01*
X117517714Y-109832295D01*
G37*
G36*
X132417714Y-109782295D02*
G01*
X132553548Y-109838559D01*
X132675795Y-109920242D01*
X132779758Y-110024205D01*
X132861441Y-110146452D01*
X132917705Y-110282286D01*
X132946389Y-110426487D01*
X132946389Y-110573513D01*
X132917705Y-110717714D01*
X132861441Y-110853548D01*
X132779758Y-110975795D01*
X132675795Y-111079758D01*
X132553548Y-111161441D01*
X132417714Y-111217705D01*
X132273513Y-111246389D01*
X132126487Y-111246389D01*
X131982286Y-111217705D01*
X131846452Y-111161441D01*
X131724205Y-111079758D01*
X131620242Y-110975795D01*
X131538559Y-110853548D01*
X131482295Y-110717714D01*
X131453611Y-110573513D01*
X131453611Y-110426487D01*
X131482295Y-110282286D01*
X131538559Y-110146452D01*
X131620242Y-110024205D01*
X131724205Y-109920242D01*
X131846452Y-109838559D01*
X131982286Y-109782295D01*
X132126487Y-109753611D01*
X132273513Y-109753611D01*
X132417714Y-109782295D01*
G37*
G36*
X117517714Y-107332295D02*
G01*
X117653548Y-107388559D01*
X117775795Y-107470242D01*
X117879758Y-107574205D01*
X117961441Y-107696452D01*
X118017705Y-107832286D01*
X118046389Y-107976487D01*
X118046389Y-108123513D01*
X118017705Y-108267714D01*
X117961441Y-108403548D01*
X117879758Y-108525795D01*
X117775795Y-108629758D01*
X117653548Y-108711441D01*
X117517714Y-108767705D01*
X117373513Y-108796389D01*
X117226487Y-108796389D01*
X117082286Y-108767705D01*
X116946452Y-108711441D01*
X116824205Y-108629758D01*
X116720242Y-108525795D01*
X116638559Y-108403548D01*
X116582295Y-108267714D01*
X116553611Y-108123513D01*
X116553611Y-107976487D01*
X116582295Y-107832286D01*
X116638559Y-107696452D01*
X116720242Y-107574205D01*
X116824205Y-107470242D01*
X116946452Y-107388559D01*
X117082286Y-107332295D01*
X117226487Y-107303611D01*
X117373513Y-107303611D01*
X117517714Y-107332295D01*
G37*
G36*
X132417714Y-107282295D02*
G01*
X132553548Y-107338559D01*
X132675795Y-107420242D01*
X132779758Y-107524205D01*
X132861441Y-107646452D01*
X132917705Y-107782286D01*
X132946389Y-107926487D01*
X132946389Y-108073513D01*
X132917705Y-108217714D01*
X132861441Y-108353548D01*
X132779758Y-108475795D01*
X132675795Y-108579758D01*
X132553548Y-108661441D01*
X132417714Y-108717705D01*
X132273513Y-108746389D01*
X132126487Y-108746389D01*
X131982286Y-108717705D01*
X131846452Y-108661441D01*
X131724205Y-108579758D01*
X131620242Y-108475795D01*
X131538559Y-108353548D01*
X131482295Y-108217714D01*
X131453611Y-108073513D01*
X131453611Y-107926487D01*
X131482295Y-107782286D01*
X131538559Y-107646452D01*
X131620242Y-107524205D01*
X131724205Y-107420242D01*
X131846452Y-107338559D01*
X131982286Y-107282295D01*
X132126487Y-107253611D01*
X132273513Y-107253611D01*
X132417714Y-107282295D01*
G37*
G36*
X117517714Y-104832295D02*
G01*
X117653548Y-104888559D01*
X117775795Y-104970242D01*
X117879758Y-105074205D01*
X117961441Y-105196452D01*
X118017705Y-105332286D01*
X118046389Y-105476487D01*
X118046389Y-105623513D01*
X118017705Y-105767714D01*
X117961441Y-105903548D01*
X117879758Y-106025795D01*
X117775795Y-106129758D01*
X117653548Y-106211441D01*
X117517714Y-106267705D01*
X117373513Y-106296389D01*
X117226487Y-106296389D01*
X117082286Y-106267705D01*
X116946452Y-106211441D01*
X116824205Y-106129758D01*
X116720242Y-106025795D01*
X116638559Y-105903548D01*
X116582295Y-105767714D01*
X116553611Y-105623513D01*
X116553611Y-105476487D01*
X116582295Y-105332286D01*
X116638559Y-105196452D01*
X116720242Y-105074205D01*
X116824205Y-104970242D01*
X116946452Y-104888559D01*
X117082286Y-104832295D01*
X117226487Y-104803611D01*
X117373513Y-104803611D01*
X117517714Y-104832295D01*
G37*
G36*
X132417714Y-104782295D02*
G01*
X132553548Y-104838559D01*
X132675795Y-104920242D01*
X132779758Y-105024205D01*
X132861441Y-105146452D01*
X132917705Y-105282286D01*
X132946389Y-105426487D01*
X132946389Y-105573513D01*
X132917705Y-105717714D01*
X132861441Y-105853548D01*
X132779758Y-105975795D01*
X132675795Y-106079758D01*
X132553548Y-106161441D01*
X132417714Y-106217705D01*
X132273513Y-106246389D01*
X132126487Y-106246389D01*
X131982286Y-106217705D01*
X131846452Y-106161441D01*
X131724205Y-106079758D01*
X131620242Y-105975795D01*
X131538559Y-105853548D01*
X131482295Y-105717714D01*
X131453611Y-105573513D01*
X131453611Y-105426487D01*
X131482295Y-105282286D01*
X131538559Y-105146452D01*
X131620242Y-105024205D01*
X131724205Y-104920242D01*
X131846452Y-104838559D01*
X131982286Y-104782295D01*
X132126487Y-104753611D01*
X132273513Y-104753611D01*
X132417714Y-104782295D01*
G37*
G36*
X117517714Y-102332295D02*
G01*
X117653548Y-102388559D01*
X117775795Y-102470242D01*
X117879758Y-102574205D01*
X117961441Y-102696452D01*
X118017705Y-102832286D01*
X118046389Y-102976487D01*
X118046389Y-103123513D01*
X118017705Y-103267714D01*
X117961441Y-103403548D01*
X117879758Y-103525795D01*
X117775795Y-103629758D01*
X117653548Y-103711441D01*
X117517714Y-103767705D01*
X117373513Y-103796389D01*
X117226487Y-103796389D01*
X117082286Y-103767705D01*
X116946452Y-103711441D01*
X116824205Y-103629758D01*
X116720242Y-103525795D01*
X116638559Y-103403548D01*
X116582295Y-103267714D01*
X116553611Y-103123513D01*
X116553611Y-102976487D01*
X116582295Y-102832286D01*
X116638559Y-102696452D01*
X116720242Y-102574205D01*
X116824205Y-102470242D01*
X116946452Y-102388559D01*
X117082286Y-102332295D01*
X117226487Y-102303611D01*
X117373513Y-102303611D01*
X117517714Y-102332295D01*
G37*
G36*
X132417714Y-102282295D02*
G01*
X132553548Y-102338559D01*
X132675795Y-102420242D01*
X132779758Y-102524205D01*
X132861441Y-102646452D01*
X132917705Y-102782286D01*
X132946389Y-102926487D01*
X132946389Y-103073513D01*
X132917705Y-103217714D01*
X132861441Y-103353548D01*
X132779758Y-103475795D01*
X132675795Y-103579758D01*
X132553548Y-103661441D01*
X132417714Y-103717705D01*
X132273513Y-103746389D01*
X132126487Y-103746389D01*
X131982286Y-103717705D01*
X131846452Y-103661441D01*
X131724205Y-103579758D01*
X131620242Y-103475795D01*
X131538559Y-103353548D01*
X131482295Y-103217714D01*
X131453611Y-103073513D01*
X131453611Y-102926487D01*
X131482295Y-102782286D01*
X131538559Y-102646452D01*
X131620242Y-102524205D01*
X131724205Y-102420242D01*
X131846452Y-102338559D01*
X131982286Y-102282295D01*
X132126487Y-102253611D01*
X132273513Y-102253611D01*
X132417714Y-102282295D01*
G37*
G36*
X117517714Y-99832295D02*
G01*
X117653548Y-99888559D01*
X117775795Y-99970242D01*
X117879758Y-100074205D01*
X117961441Y-100196452D01*
X118017705Y-100332286D01*
X118046389Y-100476487D01*
X118046389Y-100623513D01*
X118017705Y-100767714D01*
X117961441Y-100903548D01*
X117879758Y-101025795D01*
X117775795Y-101129758D01*
X117653548Y-101211441D01*
X117517714Y-101267705D01*
X117373513Y-101296389D01*
X117226487Y-101296389D01*
X117082286Y-101267705D01*
X116946452Y-101211441D01*
X116824205Y-101129758D01*
X116720242Y-101025795D01*
X116638559Y-100903548D01*
X116582295Y-100767714D01*
X116553611Y-100623513D01*
X116553611Y-100476487D01*
X116582295Y-100332286D01*
X116638559Y-100196452D01*
X116720242Y-100074205D01*
X116824205Y-99970242D01*
X116946452Y-99888559D01*
X117082286Y-99832295D01*
X117226487Y-99803611D01*
X117373513Y-99803611D01*
X117517714Y-99832295D01*
G37*
G36*
X132417714Y-99782295D02*
G01*
X132553548Y-99838559D01*
X132675795Y-99920242D01*
X132779758Y-100024205D01*
X132861441Y-100146452D01*
X132917705Y-100282286D01*
X132946389Y-100426487D01*
X132946389Y-100573513D01*
X132917705Y-100717714D01*
X132861441Y-100853548D01*
X132779758Y-100975795D01*
X132675795Y-101079758D01*
X132553548Y-101161441D01*
X132417714Y-101217705D01*
X132273513Y-101246389D01*
X132126487Y-101246389D01*
X131982286Y-101217705D01*
X131846452Y-101161441D01*
X131724205Y-101079758D01*
X131620242Y-100975795D01*
X131538559Y-100853548D01*
X131482295Y-100717714D01*
X131453611Y-100573513D01*
X131453611Y-100426487D01*
X131482295Y-100282286D01*
X131538559Y-100146452D01*
X131620242Y-100024205D01*
X131724205Y-99920242D01*
X131846452Y-99838559D01*
X131982286Y-99782295D01*
X132126487Y-99753611D01*
X132273513Y-99753611D01*
X132417714Y-99782295D01*
G37*
G36*
X117517714Y-97332295D02*
G01*
X117653548Y-97388559D01*
X117775795Y-97470242D01*
X117879758Y-97574205D01*
X117961441Y-97696452D01*
X118017705Y-97832286D01*
X118046389Y-97976487D01*
X118046389Y-98123513D01*
X118017705Y-98267714D01*
X117961441Y-98403548D01*
X117879758Y-98525795D01*
X117775795Y-98629758D01*
X117653548Y-98711441D01*
X117517714Y-98767705D01*
X117373513Y-98796389D01*
X117226487Y-98796389D01*
X117082286Y-98767705D01*
X116946452Y-98711441D01*
X116824205Y-98629758D01*
X116720242Y-98525795D01*
X116638559Y-98403548D01*
X116582295Y-98267714D01*
X116553611Y-98123513D01*
X116553611Y-97976487D01*
X116582295Y-97832286D01*
X116638559Y-97696452D01*
X116720242Y-97574205D01*
X116824205Y-97470242D01*
X116946452Y-97388559D01*
X117082286Y-97332295D01*
X117226487Y-97303611D01*
X117373513Y-97303611D01*
X117517714Y-97332295D01*
G37*
G36*
X132417714Y-97282295D02*
G01*
X132553548Y-97338559D01*
X132675795Y-97420242D01*
X132779758Y-97524205D01*
X132861441Y-97646452D01*
X132917705Y-97782286D01*
X132946389Y-97926487D01*
X132946389Y-98073513D01*
X132917705Y-98217714D01*
X132861441Y-98353548D01*
X132779758Y-98475795D01*
X132675795Y-98579758D01*
X132553548Y-98661441D01*
X132417714Y-98717705D01*
X132273513Y-98746389D01*
X132126487Y-98746389D01*
X131982286Y-98717705D01*
X131846452Y-98661441D01*
X131724205Y-98579758D01*
X131620242Y-98475795D01*
X131538559Y-98353548D01*
X131482295Y-98217714D01*
X131453611Y-98073513D01*
X131453611Y-97926487D01*
X131482295Y-97782286D01*
X131538559Y-97646452D01*
X131620242Y-97524205D01*
X131724205Y-97420242D01*
X131846452Y-97338559D01*
X131982286Y-97282295D01*
X132126487Y-97253611D01*
X132273513Y-97253611D01*
X132417714Y-97282295D01*
G37*
%LPD*%
M02*
